<?xml version="1.0" encoding="UTF-8"?>
<svg xmlns="http://www.w3.org/2000/svg" xmlns:xlink="http://www.w3.org/1999/xlink" width="170px" height="42px" viewBox="0 0 168 42" version="1.1">
<defs>
<clipPath id="clip1">
  <path d="M 46.78125 0 L 167.628906 0 L 167.628906 27.332031 L 46.78125 27.332031 Z M 46.78125 0 "/>
</clipPath>
<clipPath id="clip2">
  <path d="M 46.78125 33.785156 L 117.730469 33.785156 L 117.730469 41.9375 L 46.78125 41.9375 Z M 46.78125 33.785156 "/>
</clipPath>
<clipPath id="clip3">
  <path d="M 0.167969 4.066406 L 33.902344 4.066406 L 33.902344 37.871094 L 0.167969 37.871094 Z M 0.167969 4.066406 "/>
</clipPath>
<clipPath id="clip4">
  <path d="M 8.824219 18 L 11 18 L 11 25 L 8.824219 25 Z M 8.824219 18 "/>
</clipPath>
<clipPath id="clip5">
  <path d="M 20 12.699219 L 25.25 12.699219 L 25.25 18 L 20 18 Z M 20 12.699219 "/>
</clipPath>
<clipPath id="clip6">
  <path d="M 13 27 L 20 27 L 20 29.238281 L 13 29.238281 Z M 13 27 "/>
</clipPath>
</defs>
<g id="surface1">
<g clip-path="url(#clip1)" clip-rule="nonzero">
<path style=" stroke:none;fill-rule:nonzero;fill:rgb(14.509804%,14.117647%,13.333333%);fill-opacity:1;" d="M 57.074219 3.5625 L 53.484375 4.289062 L 53.484375 24.910156 L 62.875 24.910156 L 64.050781 18.925781 L 65.949219 18.925781 L 65.949219 26.984375 L 46.785156 26.984375 L 46.785156 25.496094 L 50.03125 24.769531 L 50.03125 4.289062 L 46.785156 3.5625 L 46.785156 2.074219 L 57.074219 2.074219 Z M 68.332031 22.9375 C 68.332031 21.136719 69.171875 19.71875 70.851562 18.683594 C 72.53125 17.644531 75.316406 16.835938 79.207031 16.261719 C 79.113281 14.898438 78.988281 13.839844 78.828125 13.078125 C 78.667969 12.316406 78.460938 11.707031 78.207031 11.242188 C 77.882812 10.644531 77.433594 10.199219 76.859375 9.910156 C 76.285156 9.621094 75.664062 9.480469 74.996094 9.480469 C 74.351562 9.480469 73.769531 9.59375 73.246094 9.824219 C 72.730469 10.054688 72.382812 10.367188 72.199219 10.757812 C 72.519531 10.988281 72.753906 11.289062 72.902344 11.660156 C 73.054688 12.027344 73.128906 12.375 73.128906 12.695312 C 73.128906 13.273438 72.9375 13.726562 72.558594 14.058594 C 72.179688 14.398438 71.714844 14.566406 71.164062 14.566406 C 70.609375 14.566406 70.152344 14.378906 69.796875 14.011719 C 69.441406 13.644531 69.261719 13.125 69.261719 12.453125 C 69.261719 11.484375 69.597656 10.667969 70.265625 10 C 70.933594 9.328125 71.777344 8.820312 72.796875 8.476562 C 73.824219 8.128906 74.855469 7.957031 75.890625 7.957031 C 76.835938 7.957031 77.703125 8.101562 78.496094 8.386719 C 79.292969 8.675781 79.964844 9.097656 80.519531 9.652344 C 81.945312 11.082031 82.660156 13.621094 82.660156 17.265625 L 82.660156 22.28125 C 82.660156 23.410156 82.734375 24.195312 82.878906 24.632812 C 83.03125 25.070312 83.363281 25.289062 83.867188 25.289062 L 85.421875 25.289062 L 85.421875 26.328125 C 83.765625 26.996094 82.476562 27.332031 81.554688 27.332031 C 80.839844 27.332031 80.363281 27.070312 80.117188 26.550781 C 79.878906 26.03125 79.757812 25.035156 79.757812 23.558594 L 79.621094 23.558594 C 78.90625 24.738281 77.964844 25.660156 76.789062 26.328125 C 75.617188 26.996094 74.351562 27.332031 72.992188 27.332031 C 71.542969 27.332031 70.402344 26.9375 69.574219 26.15625 C 68.746094 25.371094 68.332031 24.296875 68.332031 22.9375 Z M 74.441406 25.324219 C 75.085938 25.324219 75.757812 25.15625 76.457031 24.820312 C 77.164062 24.488281 77.757812 24.023438 78.242188 23.421875 C 78.609375 22.960938 78.878906 22.410156 79.046875 21.773438 C 79.222656 21.144531 79.3125 20.402344 79.3125 19.546875 C 79.3125 19.15625 79.300781 18.765625 79.277344 18.382812 C 79.253906 18.007812 79.21875 17.644531 79.171875 17.296875 C 77.308594 17.667969 75.847656 18.0625 74.789062 18.488281 C 73.730469 18.917969 72.980469 19.425781 72.542969 20.011719 C 72.105469 20.601562 71.886719 21.335938 71.886719 22.210938 C 71.886719 23.203125 72.109375 23.96875 72.558594 24.507812 C 73.007812 25.050781 73.636719 25.324219 74.441406 25.324219 Z M 106.304688 8.0625 C 106.304688 8.9375 106.105469 9.757812 105.703125 10.515625 C 105.296875 11.277344 104.75 11.914062 104.058594 12.421875 C 103.371094 12.925781 102.578125 13.238281 101.683594 13.355469 L 101.683594 13.492188 C 103.480469 13.863281 104.894531 14.621094 105.929688 15.777344 C 106.96875 16.929688 107.484375 18.347656 107.484375 20.03125 C 107.484375 21.324219 107.144531 22.515625 106.464844 23.609375 C 105.78125 24.707031 104.921875 25.519531 103.886719 26.050781 C 103.246094 26.375 102.457031 26.609375 101.511719 26.757812 C 100.5625 26.910156 99.238281 26.984375 97.542969 26.984375 L 87.21875 26.984375 L 87.21875 25.496094 L 90.109375 24.769531 L 90.109375 4.289062 L 87.21875 3.5625 L 87.21875 2.074219 L 98.820312 2.074219 C 101.234375 2.074219 103.097656 2.664062 104.40625 3.839844 C 105.007812 4.394531 105.476562 5.039062 105.808594 5.777344 C 106.136719 6.515625 106.304688 7.277344 106.304688 8.0625 Z M 97.988281 14.980469 L 93.570312 14.980469 L 93.570312 24.910156 L 97.367188 24.910156 C 98.425781 24.910156 99.277344 24.851562 99.917969 24.738281 C 100.566406 24.621094 101.109375 24.4375 101.546875 24.183594 C 102.167969 23.8125 102.675781 23.261719 103.066406 22.523438 C 103.457031 21.785156 103.652344 20.894531 103.652344 19.859375 C 103.652344 18.980469 103.5 18.214844 103.195312 17.554688 C 102.902344 16.898438 102.523438 16.375 102.0625 15.984375 C 101.648438 15.636719 101.121094 15.382812 100.476562 15.222656 C 99.832031 15.0625 99.003906 14.980469 97.988281 14.980469 Z M 98.019531 4.082031 L 93.570312 4.082031 L 93.570312 12.972656 L 97.886719 12.972656 C 99.496094 12.972656 100.683594 12.570312 101.441406 11.761719 C 101.789062 11.394531 102.085938 10.921875 102.332031 10.34375 C 102.589844 9.769531 102.71875 9.121094 102.71875 8.40625 C 102.71875 7.691406 102.589844 7.050781 102.332031 6.484375 C 102.085938 5.921875 101.789062 5.464844 101.441406 5.121094 C 100.753906 4.429688 99.609375 4.082031 98.019531 4.082031 Z M 126.332031 17.851562 L 114.28125 17.851562 C 114.28125 19.535156 114.511719 20.929688 114.96875 22.039062 C 115.429688 23.097656 116.085938 23.859375 116.9375 24.320312 C 117.789062 24.78125 118.710938 25.011719 119.699219 25.011719 C 120.78125 25.011719 121.773438 24.789062 122.671875 24.335938 C 123.566406 23.886719 124.375 23.273438 125.085938 22.488281 L 126.191406 23.316406 C 125.386719 24.425781 124.410156 25.371094 123.257812 26.15625 C 122.105469 26.9375 120.621094 27.332031 118.804688 27.332031 C 117.214844 27.332031 115.8125 26.988281 114.589844 26.308594 C 113.371094 25.628906 112.4375 24.632812 111.792969 23.316406 C 111.449219 22.601562 111.195312 21.808594 111.035156 20.929688 C 110.875 20.054688 110.792969 19.121094 110.792969 18.128906 C 110.792969 14.898438 111.535156 12.398438 113.023438 10.621094 C 114.503906 8.84375 116.523438 7.957031 119.078125 7.957031 C 121.425781 7.957031 123.242188 8.6875 124.519531 10.152344 C 125.796875 11.617188 126.433594 13.644531 126.433594 16.226562 C 126.433594 16.457031 126.429688 16.667969 126.421875 16.863281 C 126.40625 17.0625 126.375 17.390625 126.332031 17.851562 Z M 118.871094 9.824219 C 116.109375 9.824219 114.589844 11.9375 114.316406 16.15625 L 122.945312 16.15625 L 122.945312 15.015625 C 122.945312 13.355469 122.597656 12.074219 121.898438 11.175781 C 121.191406 10.273438 120.183594 9.824219 118.871094 9.824219 Z M 128.917969 25.566406 L 131.578125 24.910156 L 131.578125 2.074219 L 128.917969 1.417969 L 128.917969 0 L 134.925781 0 L 134.925781 24.910156 L 137.585938 25.566406 L 137.585938 26.984375 L 128.917969 26.984375 Z M 139.554688 25.566406 L 142.210938 24.910156 L 142.210938 2.074219 L 139.554688 1.417969 L 139.554688 0 L 145.5625 0 L 145.5625 24.910156 L 148.21875 25.566406 L 148.21875 26.984375 L 139.554688 26.984375 Z M 150.535156 22.9375 C 150.535156 21.136719 151.375 19.71875 153.054688 18.683594 C 154.734375 17.644531 157.519531 16.835938 161.410156 16.261719 C 161.316406 14.898438 161.191406 13.839844 161.03125 13.078125 C 160.871094 12.316406 160.660156 11.707031 160.410156 11.242188 C 160.085938 10.644531 159.636719 10.199219 159.0625 9.910156 C 158.488281 9.621094 157.867188 9.480469 157.199219 9.480469 C 156.554688 9.480469 155.972656 9.59375 155.449219 9.824219 C 154.933594 10.054688 154.585938 10.367188 154.402344 10.757812 C 154.722656 10.988281 154.957031 11.289062 155.105469 11.660156 C 155.257812 12.027344 155.332031 12.375 155.332031 12.695312 C 155.332031 13.273438 155.140625 13.726562 154.761719 14.058594 C 154.382812 14.398438 153.917969 14.566406 153.367188 14.566406 C 152.8125 14.566406 152.355469 14.378906 151.996094 14.011719 C 151.644531 13.644531 151.464844 13.125 151.464844 12.453125 C 151.464844 11.484375 151.800781 10.667969 152.46875 10 C 153.136719 9.328125 153.980469 8.820312 155 8.476562 C 156.027344 8.128906 157.058594 7.957031 158.09375 7.957031 C 159.039062 7.957031 159.90625 8.101562 160.699219 8.386719 C 161.496094 8.675781 162.167969 9.097656 162.722656 9.652344 C 164.148438 11.082031 164.863281 13.621094 164.863281 17.265625 L 164.863281 22.28125 C 164.863281 23.410156 164.9375 24.195312 165.082031 24.632812 C 165.234375 25.070312 165.566406 25.289062 166.070312 25.289062 L 167.625 25.289062 L 167.625 26.328125 C 165.96875 26.996094 164.679688 27.332031 163.757812 27.332031 C 163.042969 27.332031 162.566406 27.070312 162.320312 26.550781 C 162.082031 26.03125 161.960938 25.035156 161.960938 23.558594 L 161.824219 23.558594 C 161.109375 24.738281 160.167969 25.660156 158.992188 26.328125 C 157.820312 26.996094 156.554688 27.332031 155.195312 27.332031 C 153.746094 27.332031 152.605469 26.9375 151.777344 26.15625 C 150.949219 25.371094 150.535156 24.296875 150.535156 22.9375 Z M 156.644531 25.324219 C 157.289062 25.324219 157.960938 25.15625 158.660156 24.820312 C 159.367188 24.488281 159.960938 24.023438 160.445312 23.421875 C 160.8125 22.960938 161.082031 22.410156 161.25 21.773438 C 161.425781 21.144531 161.515625 20.402344 161.515625 19.546875 C 161.515625 19.15625 161.503906 18.765625 161.480469 18.382812 C 161.457031 18.007812 161.421875 17.644531 161.375 17.296875 C 159.511719 17.667969 158.050781 18.0625 156.992188 18.488281 C 155.933594 18.917969 155.183594 19.425781 154.746094 20.011719 C 154.308594 20.601562 154.089844 21.335938 154.089844 22.210938 C 154.089844 23.203125 154.3125 23.96875 154.761719 24.507812 C 155.210938 25.050781 155.839844 25.324219 156.644531 25.324219 Z M 156.644531 25.324219 "/>
</g>
<g clip-path="url(#clip2)" clip-rule="nonzero">
<path style=" stroke:none;fill-rule:nonzero;fill:rgb(14.509804%,14.117647%,13.333333%);fill-opacity:1;" d="M 47.703125 41.796875 L 46.785156 41.796875 L 46.785156 34.492188 L 49.128906 34.492188 C 49.933594 34.492188 50.542969 34.695312 50.96875 35.101562 C 51.390625 35.503906 51.601562 36.054688 51.601562 36.75 C 51.601562 37.433594 51.390625 37.980469 50.96875 38.378906 C 50.542969 38.78125 49.933594 38.984375 49.128906 38.984375 L 47.703125 38.984375 Z M 47.703125 35.273438 L 47.703125 38.191406 L 49.128906 38.191406 C 49.636719 38.191406 50.019531 38.0625 50.28125 37.800781 C 50.542969 37.542969 50.675781 37.191406 50.675781 36.75 C 50.675781 36.300781 50.542969 35.941406 50.28125 35.671875 C 50.019531 35.40625 49.636719 35.273438 49.128906 35.273438 Z M 53.742188 34.921875 C 53.558594 34.921875 53.410156 34.871094 53.300781 34.761719 C 53.195312 34.65625 53.140625 34.515625 53.140625 34.34375 C 53.140625 34.171875 53.195312 34.035156 53.300781 33.933594 C 53.410156 33.835938 53.558594 33.785156 53.742188 33.785156 C 53.929688 33.785156 54.078125 33.835938 54.183594 33.933594 C 54.292969 34.035156 54.347656 34.171875 54.347656 34.34375 C 54.347656 34.515625 54.292969 34.65625 54.183594 34.761719 C 54.078125 34.871094 53.929688 34.921875 53.742188 34.921875 Z M 54.195312 41.796875 L 53.292969 41.796875 L 53.292969 36.226562 L 54.195312 36.226562 Z M 60.429688 41.796875 L 56.136719 41.796875 L 56.136719 41.066406 L 59.410156 36.96875 L 56.136719 36.96875 L 56.136719 36.238281 L 60.429688 36.238281 L 60.429688 36.96875 L 57.203125 41.066406 L 60.429688 41.066406 Z M 65.9375 41.796875 L 61.640625 41.796875 L 61.640625 41.066406 L 64.914062 36.96875 L 61.640625 36.96875 L 61.640625 36.238281 L 65.9375 36.238281 L 65.9375 36.96875 L 62.710938 41.066406 L 65.9375 41.066406 Z M 71.933594 41.796875 L 71.144531 41.796875 L 71.027344 40.578125 L 71.027344 38.191406 C 71.027344 37.691406 70.921875 37.332031 70.707031 37.113281 C 70.496094 36.894531 70.175781 36.785156 69.75 36.785156 C 69.511719 36.785156 69.292969 36.820312 69.097656 36.890625 C 68.902344 36.960938 68.746094 37.066406 68.632812 37.210938 C 68.519531 37.355469 68.460938 37.542969 68.460938 37.773438 L 67.453125 37.773438 C 67.453125 37.371094 67.550781 37.046875 67.746094 36.796875 C 67.945312 36.550781 68.21875 36.375 68.5625 36.261719 C 68.910156 36.152344 69.304688 36.097656 69.75 36.097656 C 70.175781 36.097656 70.554688 36.167969 70.882812 36.3125 C 71.210938 36.457031 71.46875 36.683594 71.65625 36.996094 C 71.839844 37.308594 71.933594 37.714844 71.933594 38.214844 Z M 69.253906 41.9375 C 68.796875 41.9375 68.417969 41.855469 68.121094 41.691406 C 67.820312 41.53125 67.601562 41.320312 67.453125 41.058594 C 67.304688 40.800781 67.230469 40.527344 67.230469 40.238281 C 67.230469 39.863281 67.324219 39.554688 67.511719 39.320312 C 67.699219 39.082031 67.957031 38.910156 68.28125 38.800781 C 68.605469 38.6875 68.972656 38.632812 69.378906 38.632812 C 69.667969 38.632812 69.960938 38.664062 70.253906 38.71875 C 70.546875 38.777344 70.832031 38.859375 71.109375 38.960938 L 71.109375 39.53125 C 70.878906 39.4375 70.613281 39.363281 70.324219 39.308594 C 70.03125 39.253906 69.761719 39.226562 69.519531 39.226562 C 69.148438 39.226562 68.835938 39.304688 68.578125 39.457031 C 68.324219 39.609375 68.195312 39.871094 68.195312 40.238281 C 68.195312 40.511719 68.292969 40.742188 68.488281 40.9375 C 68.683594 41.128906 68.996094 41.226562 69.425781 41.226562 C 69.726562 41.226562 70 41.15625 70.242188 41.015625 C 70.484375 40.875 70.671875 40.695312 70.816406 40.484375 C 70.957031 40.269531 71.027344 40.054688 71.027344 39.84375 L 71.25 39.84375 C 71.25 40.214844 71.167969 40.5625 71.007812 40.878906 C 70.847656 41.195312 70.617188 41.453125 70.320312 41.644531 C 70.019531 41.839844 69.664062 41.9375 69.253906 41.9375 Z M 84.191406 41.9375 C 83.894531 41.9375 83.621094 41.875 83.363281 41.75 C 83.105469 41.621094 82.828125 41.425781 82.53125 41.15625 L 78.722656 37.796875 C 78.445312 37.550781 78.226562 37.285156 78.066406 36.992188 C 77.90625 36.703125 77.828125 36.398438 77.828125 36.085938 C 77.828125 35.757812 77.917969 35.460938 78.101562 35.203125 C 78.285156 34.949219 78.542969 34.746094 78.878906 34.597656 C 79.214844 34.449219 79.617188 34.375 80.082031 34.375 C 80.511719 34.375 80.890625 34.453125 81.214844 34.601562 C 81.539062 34.75 81.789062 34.949219 81.96875 35.203125 C 82.148438 35.460938 82.238281 35.746094 82.238281 36.0625 C 82.238281 36.367188 82.167969 36.644531 82.027344 36.902344 C 81.882812 37.15625 81.65625 37.394531 81.34375 37.613281 C 81.035156 37.835938 80.628906 38.046875 80.125 38.25 L 79.628906 37.773438 C 80.0625 37.582031 80.394531 37.398438 80.625 37.222656 C 80.859375 37.046875 81.019531 36.867188 81.109375 36.6875 C 81.195312 36.507812 81.242188 36.320312 81.242188 36.121094 C 81.242188 35.84375 81.136719 35.609375 80.921875 35.421875 C 80.710938 35.238281 80.429688 35.144531 80.082031 35.144531 C 79.664062 35.144531 79.347656 35.25 79.136719 35.464844 C 78.921875 35.675781 78.816406 35.925781 78.816406 36.214844 C 78.816406 36.425781 78.867188 36.625 78.964844 36.816406 C 79.066406 37.007812 79.234375 37.207031 79.464844 37.414062 L 83.25 40.75 C 83.410156 40.882812 83.546875 40.980469 83.667969 41.042969 C 83.792969 41.105469 83.941406 41.132812 84.121094 41.132812 C 84.316406 41.132812 84.492188 41.0625 84.640625 40.914062 C 84.789062 40.765625 84.875 40.523438 84.898438 40.179688 L 85.757812 40.179688 C 85.730469 40.730469 85.585938 41.160156 85.324219 41.472656 C 85.0625 41.78125 84.683594 41.9375 84.191406 41.9375 Z M 79.570312 41.9375 C 79.160156 41.9375 78.78125 41.882812 78.433594 41.773438 C 78.089844 41.660156 77.789062 41.507812 77.527344 41.308594 C 77.273438 41.109375 77.070312 40.882812 76.929688 40.621094 C 76.785156 40.359375 76.714844 40.078125 76.714844 39.773438 C 76.714844 39.179688 76.949219 38.734375 77.417969 38.4375 C 77.890625 38.136719 78.570312 37.949219 79.464844 37.878906 L 79.6875 38.414062 C 79.007812 38.484375 78.507812 38.625 78.1875 38.839844 C 77.863281 39.054688 77.699219 39.355469 77.699219 39.738281 C 77.699219 39.988281 77.773438 40.21875 77.917969 40.429688 C 78.0625 40.640625 78.277344 40.808594 78.554688 40.933594 C 78.832031 41.058594 79.175781 41.125 79.582031 41.125 C 80.054688 41.125 80.484375 41.023438 80.878906 40.828125 C 81.273438 40.632812 81.628906 40.363281 81.949219 40.019531 C 82.269531 39.675781 82.554688 39.28125 82.804688 38.828125 C 83.054688 38.375 83.269531 37.894531 83.445312 37.378906 L 84.085938 37.726562 C 83.894531 38.316406 83.660156 38.867188 83.378906 39.375 C 83.097656 39.882812 82.773438 40.332031 82.398438 40.714844 C 82.027344 41.097656 81.605469 41.398438 81.132812 41.613281 C 80.664062 41.828125 80.140625 41.9375 79.570312 41.9375 Z M 91.121094 41.796875 L 90.203125 41.796875 L 90.203125 34.492188 L 92.546875 34.492188 C 93.347656 34.492188 93.960938 34.695312 94.382812 35.101562 C 94.808594 35.503906 95.019531 36.054688 95.019531 36.75 C 95.019531 37.433594 94.808594 37.980469 94.382812 38.378906 C 93.960938 38.78125 93.347656 38.984375 92.546875 38.984375 L 91.121094 38.984375 Z M 91.121094 35.273438 L 91.121094 38.191406 L 92.546875 38.191406 C 93.054688 38.191406 93.4375 38.0625 93.699219 37.800781 C 93.960938 37.542969 94.089844 37.191406 94.089844 36.75 C 94.089844 36.300781 93.960938 35.941406 93.699219 35.671875 C 93.4375 35.40625 93.054688 35.273438 92.546875 35.273438 Z M 100.875 41.796875 L 100.085938 41.796875 L 99.96875 40.578125 L 99.96875 38.191406 C 99.96875 37.691406 99.863281 37.332031 99.648438 37.113281 C 99.4375 36.894531 99.117188 36.785156 98.691406 36.785156 C 98.453125 36.785156 98.234375 36.820312 98.039062 36.890625 C 97.84375 36.960938 97.6875 37.066406 97.574219 37.210938 C 97.460938 37.355469 97.402344 37.542969 97.402344 37.773438 L 96.394531 37.773438 C 96.394531 37.371094 96.492188 37.046875 96.6875 36.796875 C 96.886719 36.550781 97.160156 36.375 97.507812 36.261719 C 97.851562 36.152344 98.246094 36.097656 98.691406 36.097656 C 99.117188 36.097656 99.496094 36.167969 99.824219 36.3125 C 100.152344 36.457031 100.410156 36.683594 100.597656 36.996094 C 100.78125 37.308594 100.875 37.714844 100.875 38.214844 Z M 98.195312 41.9375 C 97.738281 41.9375 97.359375 41.855469 97.0625 41.691406 C 96.761719 41.53125 96.542969 41.320312 96.394531 41.058594 C 96.246094 40.800781 96.171875 40.527344 96.171875 40.238281 C 96.171875 39.863281 96.265625 39.554688 96.453125 39.320312 C 96.640625 39.082031 96.898438 38.910156 97.222656 38.800781 C 97.546875 38.6875 97.914062 38.632812 98.320312 38.632812 C 98.609375 38.632812 98.902344 38.664062 99.195312 38.71875 C 99.488281 38.777344 99.773438 38.859375 100.050781 38.960938 L 100.050781 39.53125 C 99.820312 39.4375 99.554688 39.363281 99.265625 39.308594 C 98.972656 39.253906 98.703125 39.226562 98.460938 39.226562 C 98.089844 39.226562 97.777344 39.304688 97.519531 39.457031 C 97.265625 39.609375 97.136719 39.871094 97.136719 40.238281 C 97.136719 40.511719 97.234375 40.742188 97.429688 40.9375 C 97.625 41.128906 97.9375 41.226562 98.367188 41.226562 C 98.667969 41.226562 98.941406 41.15625 99.183594 41.015625 C 99.425781 40.875 99.617188 40.695312 99.757812 40.484375 C 99.898438 40.269531 99.96875 40.054688 99.96875 39.84375 L 100.191406 39.84375 C 100.191406 40.214844 100.109375 40.5625 99.949219 40.878906 C 99.789062 41.195312 99.558594 41.453125 99.261719 41.644531 C 98.960938 41.839844 98.605469 41.9375 98.195312 41.9375 Z M 105.035156 41.9375 C 104.5 41.9375 104.050781 41.859375 103.6875 41.707031 C 103.328125 41.554688 103.058594 41.34375 102.871094 41.074219 C 102.6875 40.804688 102.585938 40.496094 102.574219 40.144531 L 103.445312 40.144531 C 103.464844 40.5 103.609375 40.761719 103.871094 40.9375 C 104.136719 41.117188 104.496094 41.203125 104.953125 41.203125 C 105.195312 41.203125 105.414062 41.164062 105.617188 41.089844 C 105.816406 41.011719 105.976562 40.90625 106.097656 40.769531 C 106.21875 40.632812 106.277344 40.480469 106.277344 40.308594 C 106.277344 40.089844 106.199219 39.921875 106.039062 39.796875 C 105.882812 39.671875 105.628906 39.566406 105.277344 39.472656 L 104.199219 39.121094 C 103.730469 38.976562 103.375 38.773438 103.121094 38.515625 C 102.875 38.257812 102.75 37.945312 102.75 37.585938 C 102.75 37.136719 102.945312 36.777344 103.339844 36.503906 C 103.734375 36.234375 104.253906 36.097656 104.894531 36.097656 C 105.578125 36.097656 106.105469 36.238281 106.480469 36.515625 C 106.855469 36.796875 107.050781 37.144531 107.066406 37.5625 L 106.171875 37.5625 C 106.140625 37.320312 106.015625 37.132812 105.800781 37.007812 C 105.589844 36.882812 105.289062 36.820312 104.894531 36.820312 C 104.523438 36.820312 104.226562 36.902344 104.015625 37.074219 C 103.804688 37.242188 103.699219 37.425781 103.699219 37.632812 C 103.699219 38.015625 104.03125 38.300781 104.6875 38.484375 L 105.789062 38.855469 C 106.265625 38.996094 106.632812 39.183594 106.882812 39.417969 C 107.136719 39.652344 107.265625 39.949219 107.265625 40.308594 C 107.265625 40.589844 107.171875 40.851562 106.992188 41.101562 C 106.808594 41.347656 106.550781 41.550781 106.21875 41.703125 C 105.886719 41.859375 105.492188 41.9375 105.035156 41.9375 Z M 110.84375 41.9375 C 110.542969 41.9375 110.269531 41.878906 110.03125 41.761719 C 109.792969 41.644531 109.601562 41.472656 109.460938 41.238281 C 109.324219 41.007812 109.253906 40.714844 109.253906 40.367188 L 109.253906 34.691406 L 110.148438 34.691406 L 110.148438 40.34375 C 110.148438 40.917969 110.414062 41.203125 110.949219 41.203125 C 111.109375 41.203125 111.261719 41.1875 111.410156 41.152344 C 111.558594 41.117188 111.726562 41.066406 111.910156 40.996094 L 112.039062 41.644531 C 111.84375 41.730469 111.648438 41.800781 111.453125 41.855469 C 111.253906 41.910156 111.054688 41.9375 110.84375 41.9375 Z M 111.902344 36.867188 L 108.359375 36.867188 L 108.359375 36.238281 L 111.902344 36.238281 Z M 117.726562 41.796875 L 116.9375 41.796875 L 116.820312 40.578125 L 116.820312 38.191406 C 116.820312 37.691406 116.714844 37.332031 116.503906 37.113281 C 116.289062 36.894531 115.972656 36.785156 115.546875 36.785156 C 115.304688 36.785156 115.089844 36.820312 114.894531 36.890625 C 114.699219 36.960938 114.542969 37.066406 114.429688 37.210938 C 114.3125 37.355469 114.257812 37.542969 114.257812 37.773438 L 113.246094 37.773438 C 113.246094 37.371094 113.347656 37.046875 113.542969 36.796875 C 113.742188 36.550781 114.011719 36.375 114.359375 36.261719 C 114.707031 36.152344 115.101562 36.097656 115.546875 36.097656 C 115.972656 36.097656 116.347656 36.167969 116.679688 36.3125 C 117.007812 36.457031 117.261719 36.683594 117.449219 36.996094 C 117.636719 37.308594 117.726562 37.714844 117.726562 38.214844 Z M 115.046875 41.9375 C 114.589844 41.9375 114.210938 41.855469 113.914062 41.691406 C 113.617188 41.53125 113.394531 41.320312 113.246094 41.058594 C 113.101562 40.800781 113.027344 40.527344 113.027344 40.238281 C 113.027344 39.863281 113.121094 39.554688 113.308594 39.320312 C 113.496094 39.082031 113.753906 38.910156 114.078125 38.800781 C 114.402344 38.6875 114.769531 38.632812 115.175781 38.632812 C 115.464844 38.632812 115.753906 38.664062 116.046875 38.71875 C 116.339844 38.777344 116.625 38.859375 116.902344 38.960938 L 116.902344 39.53125 C 116.671875 39.4375 116.410156 39.363281 116.117188 39.308594 C 115.824219 39.253906 115.558594 39.226562 115.3125 39.226562 C 114.941406 39.226562 114.628906 39.304688 114.371094 39.457031 C 114.117188 39.609375 113.988281 39.871094 113.988281 40.238281 C 113.988281 40.511719 114.085938 40.742188 114.28125 40.9375 C 114.480469 41.128906 114.792969 41.226562 115.21875 41.226562 C 115.523438 41.226562 115.792969 41.15625 116.035156 41.015625 C 116.277344 40.875 116.46875 40.695312 116.609375 40.484375 C 116.75 40.269531 116.820312 40.054688 116.820312 39.84375 L 117.042969 39.84375 C 117.042969 40.214844 116.960938 40.5625 116.800781 40.878906 C 116.640625 41.195312 116.414062 41.453125 116.113281 41.644531 C 115.816406 41.839844 115.460938 41.9375 115.046875 41.9375 Z M 115.046875 41.9375 "/>
</g>
<g clip-path="url(#clip3)" clip-rule="nonzero">
<path style="fill-rule:nonzero;fill:rgb(82.745098%,77.647059%,33.72549%);fill-opacity:1;stroke-width:1;stroke-linecap:butt;stroke-linejoin:miter;stroke:rgb(100%,100%,100%);stroke-opacity:1;stroke-miterlimit:4;" d="M 0.000564207 55.2077 C 0.000564207 24.713033 24.713669 -0.00168309 55.205524 -0.00168309 C 85.697378 -0.00168309 110.410483 24.713033 110.410483 55.2077 C 110.410483 85.702367 85.697378 110.417083 55.205524 110.417083 C 24.713669 110.417083 0.000564207 85.702367 0.000564207 55.2077 Z M 55.205524 102.365981 C 81.248252 102.365981 102.368816 81.24938 102.368816 55.2077 C 102.368816 29.16602 81.248252 8.049419 55.205524 8.049419 C 29.162795 8.049419 8.055016 29.16602 8.055016 55.2077 C 8.055016 81.24938 29.162795 102.365981 55.205524 102.365981 Z M 55.205524 102.365981 " transform="matrix(0.305538,0,0,0.30615,0.167796,4.066922)"/>
</g>
<path style=" stroke:none;fill-rule:nonzero;fill:rgb(82.745098%,77.647059%,33.72549%);fill-opacity:1;" d="M 10.667969 23.941406 C 11.398438 25.597656 12.71875 26.816406 14.273438 27.457031 L 16.707031 21.34375 Z M 11.722656 24.570312 C 11.578125 24.230469 11.734375 23.835938 12.074219 23.6875 C 12.414062 23.542969 12.808594 23.699219 12.953125 24.039062 C 13.101562 24.382812 12.945312 24.777344 12.601562 24.921875 C 12.261719 25.070312 11.867188 24.910156 11.722656 24.570312 Z M 14.164062 26.3125 C 13.824219 26.460938 13.429688 26.300781 13.28125 25.960938 C 13.136719 25.621094 13.292969 25.226562 13.632812 25.078125 C 13.972656 24.933594 14.367188 25.089844 14.515625 25.429688 C 14.660156 25.773438 14.503906 26.167969 14.164062 26.3125 Z M 14.71875 24.203125 C 14.378906 24.351562 13.984375 24.191406 13.835938 23.851562 C 13.691406 23.511719 13.847656 23.117188 14.1875 22.96875 C 14.527344 22.824219 14.921875 22.980469 15.070312 23.320312 C 15.214844 23.664062 15.058594 24.058594 14.71875 24.203125 Z M 14.71875 24.203125 "/>
<g clip-path="url(#clip4)" clip-rule="nonzero">
<path style=" stroke:none;fill-rule:nonzero;fill:rgb(82.745098%,77.647059%,33.72549%);fill-opacity:1;" d="M 10.242188 18.636719 L 9.367188 18.285156 C 8.644531 20.15625 8.613281 22.300781 9.445312 24.292969 L 10.308594 23.921875 C 9.578125 22.167969 9.605469 20.285156 10.242188 18.636719 Z M 10.242188 18.636719 "/>
</g>
<path style=" stroke:none;fill-rule:nonzero;fill:rgb(82.745098%,77.647059%,33.72549%);fill-opacity:1;" d="M 13.980469 14.695312 L 13.609375 13.832031 C 11.636719 14.703125 10.1875 16.277344 9.425781 18.136719 L 10.300781 18.484375 C 10.972656 16.851562 12.25 15.464844 13.980469 14.695312 Z M 13.980469 14.695312 "/>
<path style=" stroke:none;fill-rule:nonzero;fill:rgb(82.745098%,77.647059%,33.72549%);fill-opacity:1;" d="M 19.40625 14.566406 L 19.753906 13.6875 C 17.886719 12.964844 15.75 12.933594 13.757812 13.769531 L 14.128906 14.632812 C 15.878906 13.902344 17.757812 13.929688 19.40625 14.566406 Z M 19.40625 14.566406 "/>
<path style=" stroke:none;fill-rule:nonzero;fill:rgb(82.745098%,77.647059%,33.72549%);fill-opacity:1;" d="M 14.421875 27.519531 C 15.992188 28.125 17.785156 28.148438 19.453125 27.453125 L 16.855469 21.402344 Z M 16.25 27.144531 C 15.953125 27.371094 15.535156 27.316406 15.308594 27.019531 C 15.085938 26.726562 15.140625 26.304688 15.433594 26.078125 C 15.730469 25.851562 16.148438 25.910156 16.375 26.203125 C 16.597656 26.5 16.542969 26.921875 16.25 27.144531 Z M 16.273438 25.164062 C 16.050781 24.871094 16.105469 24.449219 16.402344 24.222656 C 16.695312 24 17.117188 24.054688 17.339844 24.351562 C 17.566406 24.644531 17.507812 25.066406 17.214844 25.292969 C 16.921875 25.515625 16.5 25.460938 16.273438 25.164062 Z M 18.425781 27.171875 C 18.132812 27.394531 17.710938 27.339844 17.488281 27.042969 C 17.261719 26.75 17.316406 26.328125 17.613281 26.101562 C 17.90625 25.878906 18.328125 25.933594 18.550781 26.230469 C 18.777344 26.523438 18.71875 26.945312 18.425781 27.171875 Z M 18.425781 27.171875 "/>
<path style=" stroke:none;fill-rule:nonzero;fill:rgb(82.745098%,77.647059%,33.72549%);fill-opacity:1;" d="M 18.050781 19.988281 L 24.089844 17.390625 C 23.359375 15.734375 22.039062 14.515625 20.484375 13.875 Z M 20.539062 18.316406 C 20.191406 18.449219 19.804688 18.273438 19.675781 17.925781 C 19.542969 17.582031 19.71875 17.191406 20.066406 17.0625 C 20.410156 16.929688 20.796875 17.105469 20.929688 17.453125 C 21.058594 17.800781 20.886719 18.1875 20.539062 18.316406 Z M 23.074219 16.828125 C 23.203125 17.175781 23.027344 17.5625 22.683594 17.695312 C 22.335938 17.824219 21.949219 17.648438 21.820312 17.304688 C 21.6875 16.957031 21.863281 16.566406 22.207031 16.4375 C 22.554688 16.304688 22.941406 16.480469 23.074219 16.828125 Z M 21.1875 16.234375 C 20.839844 16.367188 20.453125 16.191406 20.324219 15.84375 C 20.191406 15.496094 20.367188 15.109375 20.710938 14.976562 C 21.058594 14.847656 21.445312 15.023438 21.578125 15.371094 C 21.707031 15.714844 21.53125 16.105469 21.1875 16.234375 Z M 21.1875 16.234375 "/>
<g clip-path="url(#clip5)" clip-rule="nonzero">
<path style=" stroke:none;fill-rule:nonzero;fill:rgb(82.745098%,77.647059%,33.72549%);fill-opacity:1;" d="M 24.386719 17.261719 L 25.246094 16.890625 C 24.378906 14.914062 22.804688 13.460938 20.953125 12.699219 L 20.605469 13.574219 C 22.234375 14.246094 23.617188 15.527344 24.386719 17.261719 Z M 24.386719 17.261719 "/>
</g>
<path style=" stroke:none;fill-rule:nonzero;fill:rgb(82.745098%,77.647059%,33.72549%);fill-opacity:1;" d="M 23.167969 23.628906 C 23.773438 22.054688 23.796875 20.257812 23.105469 18.589844 L 17.066406 21.1875 Z M 21.511719 19.78125 C 21.675781 19.449219 22.078125 19.3125 22.410156 19.476562 C 22.742188 19.640625 22.878906 20.042969 22.714844 20.375 C 22.550781 20.707031 22.152344 20.84375 21.820312 20.679688 C 21.488281 20.515625 21.351562 20.113281 21.511719 19.78125 Z M 22.371094 21.566406 C 22.703125 21.730469 22.835938 22.132812 22.675781 22.464844 C 22.511719 22.796875 22.109375 22.933594 21.777344 22.769531 C 21.445312 22.605469 21.308594 22.203125 21.472656 21.871094 C 21.636719 21.539062 22.035156 21.402344 22.371094 21.566406 Z M 20.449219 20.421875 C 20.78125 20.585938 20.917969 20.988281 20.753906 21.324219 C 20.589844 21.65625 20.191406 21.792969 19.859375 21.628906 C 19.523438 21.464844 19.386719 21.0625 19.550781 20.730469 C 19.714844 20.394531 20.117188 20.257812 20.449219 20.421875 Z M 20.449219 20.421875 "/>
<path style=" stroke:none;fill-rule:nonzero;fill:rgb(82.745098%,77.647059%,33.72549%);fill-opacity:1;" d="M 19.601562 27.390625 C 21.25 26.65625 22.46875 25.335938 23.109375 23.777344 L 17.003906 21.339844 Z M 21.179688 23.5 C 21.527344 23.367188 21.914062 23.542969 22.046875 23.890625 C 22.175781 24.234375 22.003906 24.625 21.65625 24.757812 C 21.3125 24.886719 20.925781 24.714844 20.792969 24.367188 C 20.660156 24.019531 20.835938 23.632812 21.179688 23.5 Z M 19.097656 22.859375 C 19.445312 22.726562 19.832031 22.898438 19.964844 23.246094 C 20.097656 23.59375 19.921875 23.980469 19.578125 24.113281 C 19.230469 24.246094 18.84375 24.070312 18.710938 23.726562 C 18.578125 23.378906 18.753906 22.992188 19.097656 22.859375 Z M 19.730469 25.003906 C 20.074219 24.871094 20.460938 25.046875 20.59375 25.394531 C 20.726562 25.738281 20.554688 26.128906 20.207031 26.261719 C 19.859375 26.390625 19.472656 26.21875 19.339844 25.871094 C 19.210938 25.523438 19.382812 25.136719 19.730469 25.003906 Z M 19.730469 25.003906 "/>
<g clip-path="url(#clip6)" clip-rule="nonzero">
<path style=" stroke:none;fill-rule:nonzero;fill:rgb(82.745098%,77.647059%,33.72549%);fill-opacity:1;" d="M 14.304688 27.816406 L 13.953125 28.695312 C 15.824219 29.417969 17.960938 29.449219 19.949219 28.613281 L 19.582031 27.75 C 17.832031 28.480469 15.949219 28.453125 14.304688 27.816406 Z M 14.304688 27.816406 "/>
</g>
<path style=" stroke:none;fill-rule:nonzero;fill:rgb(82.745098%,77.647059%,33.72549%);fill-opacity:1;" d="M 14.109375 14.992188 C 12.457031 15.726562 11.242188 17.046875 10.601562 18.605469 L 16.703125 21.042969 Z M 12.664062 18.847656 C 12.320312 18.984375 11.933594 18.8125 11.796875 18.464844 C 11.664062 18.121094 11.832031 17.730469 12.179688 17.597656 C 12.523438 17.460938 12.910156 17.632812 13.046875 17.976562 C 13.179688 18.324219 13.011719 18.714844 12.664062 18.847656 Z M 14.75 19.472656 C 14.40625 19.609375 14.019531 19.4375 13.882812 19.09375 C 13.75 18.746094 13.917969 18.359375 14.265625 18.222656 C 14.609375 18.089844 14.996094 18.257812 15.132812 18.605469 C 15.265625 18.949219 15.097656 19.339844 14.75 19.472656 Z M 14.105469 17.332031 C 13.761719 17.46875 13.371094 17.296875 13.238281 16.953125 C 13.101562 16.605469 13.273438 16.214844 13.617188 16.082031 C 13.964844 15.945312 14.351562 16.117188 14.488281 16.464844 C 14.621094 16.808594 14.449219 17.199219 14.105469 17.332031 Z M 14.105469 17.332031 "/>
<path style=" stroke:none;fill-rule:nonzero;fill:rgb(82.745098%,77.647059%,33.72549%);fill-opacity:1;" d="M 19.726562 27.6875 L 20.097656 28.550781 C 22.070312 27.679688 23.523438 26.105469 24.28125 24.246094 L 23.40625 23.898438 C 22.734375 25.53125 21.460938 26.917969 19.726562 27.6875 Z M 19.726562 27.6875 "/>
<path style=" stroke:none;fill-rule:nonzero;fill:rgb(82.745098%,77.647059%,33.72549%);fill-opacity:1;" d="M 23.402344 18.460938 C 24.128906 20.214844 24.101562 22.097656 23.46875 23.746094 L 24.34375 24.097656 C 25.066406 22.226562 25.09375 20.082031 24.261719 18.089844 Z M 23.402344 18.460938 "/>
<path style=" stroke:none;fill-rule:nonzero;fill:rgb(82.745098%,77.647059%,33.72549%);fill-opacity:1;" d="M 10.539062 18.753906 C 9.9375 20.328125 9.910156 22.125 10.605469 23.796875 L 16.644531 21.195312 Z M 12.046875 22.601562 C 11.875 22.929688 11.46875 23.054688 11.140625 22.882812 C 10.8125 22.707031 10.6875 22.300781 10.863281 21.972656 C 11.035156 21.644531 11.441406 21.519531 11.769531 21.695312 C 12.09375 21.867188 12.21875 22.273438 12.046875 22.601562 Z M 12.148438 20.511719 C 11.976562 20.839844 11.570312 20.964844 11.242188 20.792969 C 10.917969 20.617188 10.792969 20.210938 10.964844 19.882812 C 11.136719 19.554688 11.542969 19.429688 11.871094 19.605469 C 12.199219 19.777344 12.324219 20.183594 12.148438 20.511719 Z M 14.035156 21.710938 C 13.863281 22.039062 13.457031 22.164062 13.128906 21.992188 C 12.800781 21.816406 12.675781 21.410156 12.851562 21.082031 C 13.023438 20.753906 13.429688 20.628906 13.753906 20.804688 C 14.082031 20.976562 14.207031 21.382812 14.035156 21.710938 Z M 14.035156 21.710938 "/>
<path style=" stroke:none;fill-rule:nonzero;fill:rgb(82.745098%,77.647059%,33.72549%);fill-opacity:1;" d="M 19.285156 14.863281 C 17.71875 14.257812 15.921875 14.234375 14.257812 14.929688 L 16.851562 20.980469 Z M 17.238281 15.644531 C 17.394531 15.308594 17.792969 15.164062 18.128906 15.320312 C 18.464844 15.480469 18.609375 15.878906 18.449219 16.214844 C 18.292969 16.550781 17.894531 16.695312 17.558594 16.539062 C 17.222656 16.378906 17.078125 15.980469 17.238281 15.644531 Z M 17.347656 18.160156 C 17.191406 18.496094 16.789062 18.640625 16.457031 18.480469 C 16.121094 18.324219 15.976562 17.921875 16.132812 17.585938 C 16.289062 17.253906 16.691406 17.109375 17.023438 17.265625 C 17.359375 17.421875 17.503906 17.824219 17.347656 18.160156 Z M 16.042969 15.320312 C 16.375 15.476562 16.519531 15.875 16.363281 16.210938 C 16.207031 16.546875 15.808594 16.691406 15.472656 16.535156 C 15.136719 16.378906 14.992188 15.976562 15.148438 15.640625 C 15.308594 15.304688 15.707031 15.160156 16.042969 15.320312 Z M 16.042969 15.320312 "/>
<path style=" stroke:none;fill-rule:nonzero;fill:rgb(82.745098%,77.647059%,33.72549%);fill-opacity:1;" d="M 10.371094 24.070312 L 9.511719 24.441406 C 10.378906 26.417969 11.953125 27.871094 13.804688 28.632812 L 14.152344 27.757812 C 12.523438 27.085938 11.140625 25.804688 10.371094 24.070312 Z M 10.371094 24.070312 "/>
</g>
</svg>
