<?xml version="1.0" encoding="UTF-8"?>
<svg xmlns="http://www.w3.org/2000/svg" xmlns:xlink="http://www.w3.org/1999/xlink" width="326px" height="60px" viewBox="0 0 326 60" version="1.1">
<defs>
<clipPath id="clip1">
  <path d="M 72.476562 5.53125 L 232 5.53125 L 232 31.808594 L 72.476562 31.808594 Z M 72.476562 5.53125 "/>
</clipPath>
<clipPath id="clip2">
  <path d="M 241 6 L 325.300781 6 L 325.300781 31.808594 L 241 31.808594 Z M 241 6 "/>
</clipPath>
<clipPath id="clip3">
  <path d="M 72.476562 38.011719 L 213.660156 38.011719 L 213.660156 54.25 L 72.476562 54.25 Z M 72.476562 38.011719 "/>
</clipPath>
<clipPath id="clip4">
  <path d="M 0.304688 0 L 60.074219 0 L 60.074219 59.785156 L 0.304688 59.785156 Z M 0.304688 0 "/>
</clipPath>
<clipPath id="clip5">
  <path d="M 13.632812 24 L 17 24 L 17 37 L 13.632812 37 Z M 13.632812 24 "/>
</clipPath>
<clipPath id="clip6">
  <path d="M 37 13.25 L 46.742188 13.25 L 46.742188 23 L 37 23 Z M 37 13.25 "/>
</clipPath>
<clipPath id="clip7">
  <path d="M 23 43 L 37 43 L 37 46.535156 L 23 46.535156 Z M 23 43 "/>
</clipPath>
<clipPath id="clip8">
  <path d="M 43 24 L 46.742188 24 L 46.742188 37 L 43 37 Z M 43 24 "/>
</clipPath>
</defs>
<g id="surface1">
<g clip-path="url(#clip1)" clip-rule="nonzero">
<path style=" stroke:none;fill-rule:nonzero;fill:rgb(14.509804%,14.117647%,13.333333%);fill-opacity:1;" d="M 87.050781 28.449219 L 87.183594 28.449219 L 93.601562 7.527344 L 101.382812 7.527344 L 101.382812 8.957031 L 98.589844 9.65625 L 98.589844 29.347656 L 101.382812 30.046875 L 101.382812 31.476562 L 92.835938 31.476562 L 92.835938 30.046875 L 95.265625 29.347656 L 95.265625 9.691406 L 88.414062 31.476562 L 84.492188 31.476562 L 77.574219 9.691406 L 77.574219 29.347656 L 80 30.046875 L 80 31.476562 L 72.617188 31.476562 L 72.617188 30.046875 L 75.414062 29.347656 L 75.414062 9.65625 L 72.617188 8.957031 L 72.617188 7.527344 L 80.535156 7.527344 Z M 104.242188 27.585938 C 104.242188 25.855469 105.050781 24.492188 106.671875 23.496094 C 108.289062 22.496094 110.972656 21.71875 114.71875 21.164062 C 114.628906 19.859375 114.507812 18.835938 114.351562 18.105469 C 114.195312 17.375 113.996094 16.785156 113.753906 16.34375 C 113.441406 15.765625 113.011719 15.339844 112.457031 15.058594 C 111.902344 14.785156 111.304688 14.644531 110.660156 14.644531 C 110.039062 14.644531 109.480469 14.757812 108.976562 14.980469 C 108.480469 15.199219 108.144531 15.5 107.96875 15.878906 C 108.277344 16.097656 108.503906 16.386719 108.644531 16.742188 C 108.792969 17.097656 108.863281 17.429688 108.863281 17.738281 C 108.863281 18.292969 108.679688 18.730469 108.3125 19.050781 C 107.949219 19.375 107.5 19.535156 106.96875 19.535156 C 106.4375 19.535156 106 19.359375 105.652344 19.003906 C 105.3125 18.648438 105.140625 18.148438 105.140625 17.507812 C 105.140625 16.574219 105.460938 15.789062 106.105469 15.144531 C 106.75 14.503906 107.5625 14.015625 108.546875 13.683594 C 109.535156 13.347656 110.527344 13.183594 111.527344 13.183594 C 112.433594 13.183594 113.269531 13.320312 114.03125 13.59375 C 114.800781 13.875 115.449219 14.28125 115.980469 14.8125 C 117.355469 16.1875 118.042969 18.625 118.042969 22.128906 L 118.042969 26.953125 C 118.042969 28.039062 118.113281 28.792969 118.257812 29.214844 C 118.402344 29.636719 118.71875 29.847656 119.207031 29.847656 L 120.703125 29.847656 L 120.703125 30.84375 C 119.105469 31.488281 117.867188 31.808594 116.980469 31.808594 C 116.292969 31.808594 115.832031 31.558594 115.59375 31.058594 C 115.363281 30.5625 115.25 29.601562 115.25 28.183594 L 115.117188 28.183594 C 114.429688 29.316406 113.519531 30.203125 112.390625 30.84375 C 111.257812 31.488281 110.039062 31.808594 108.730469 31.808594 C 107.335938 31.808594 106.238281 31.433594 105.441406 30.679688 C 104.640625 29.925781 104.242188 28.894531 104.242188 27.585938 Z M 110.128906 29.878906 C 110.75 29.878906 111.398438 29.71875 112.070312 29.394531 C 112.75 29.074219 113.320312 28.628906 113.785156 28.050781 C 114.140625 27.609375 114.402344 27.078125 114.566406 26.46875 C 114.734375 25.859375 114.816406 25.144531 114.816406 24.324219 C 114.816406 23.949219 114.804688 23.578125 114.785156 23.207031 C 114.761719 22.84375 114.730469 22.496094 114.683594 22.164062 C 112.890625 22.519531 111.480469 22.898438 110.460938 23.308594 C 109.441406 23.71875 108.722656 24.207031 108.300781 24.773438 C 107.878906 25.339844 107.667969 26.042969 107.667969 26.886719 C 107.667969 27.839844 107.882812 28.578125 108.3125 29.09375 C 108.746094 29.617188 109.351562 29.878906 110.128906 29.878906 Z M 122.367188 22.664062 C 122.367188 21.222656 122.554688 19.847656 122.929688 18.539062 C 123.308594 17.230469 123.875 16.164062 124.628906 15.34375 C 125.269531 14.636719 126.035156 14.097656 126.921875 13.726562 C 127.808594 13.363281 128.828125 13.183594 129.980469 13.183594 C 130.957031 13.183594 131.847656 13.371094 132.65625 13.75 C 133.464844 14.125 134.191406 14.800781 134.835938 15.777344 L 134.835938 7.527344 L 132.277344 6.894531 L 132.277344 5.53125 L 138.0625 5.53125 L 138.0625 29.480469 L 140.621094 30.113281 L 140.621094 31.476562 L 135.46875 31.808594 L 135.203125 29.082031 C 134.515625 30.101562 133.738281 30.8125 132.875 31.210938 C 132.007812 31.609375 131.046875 31.808594 129.980469 31.808594 C 128.851562 31.808594 127.832031 31.644531 126.921875 31.3125 C 126.011719 30.976562 125.257812 30.445312 124.660156 29.714844 C 123.949219 28.847656 123.390625 27.8125 122.976562 26.601562 C 122.570312 25.394531 122.367188 24.082031 122.367188 22.664062 Z M 134.835938 22.628906 C 134.835938 21.277344 134.738281 20.101562 134.535156 19.105469 C 134.335938 18.105469 134.050781 17.296875 133.671875 16.675781 C 133.316406 16.097656 132.886719 15.660156 132.375 15.359375 C 131.867188 15.0625 131.1875 14.914062 130.347656 14.914062 C 129.59375 14.914062 128.933594 15.046875 128.363281 15.3125 C 127.800781 15.578125 127.34375 15.964844 126.988281 16.476562 C 126.589844 17.03125 126.300781 17.820312 126.125 18.851562 C 125.945312 19.882812 125.859375 21.066406 125.859375 22.398438 C 125.859375 23.726562 125.957031 24.882812 126.15625 25.871094 C 126.355469 26.859375 126.644531 27.675781 127.023438 28.316406 C 127.398438 28.871094 127.847656 29.304688 128.363281 29.613281 C 128.886719 29.925781 129.558594 30.082031 130.378906 30.082031 C 131.15625 30.082031 131.824219 29.953125 132.386719 29.695312 C 132.957031 29.441406 133.382812 29.058594 133.671875 28.550781 C 134.050781 27.929688 134.335938 27.125 134.535156 26.136719 C 134.738281 25.152344 134.835938 23.980469 134.835938 22.628906 Z M 145.203125 29.480469 L 145.203125 15.511719 L 142.644531 14.878906 L 142.644531 13.515625 L 148.429688 13.515625 L 148.429688 29.480469 L 150.992188 30.113281 L 150.992188 31.476562 L 142.644531 31.476562 L 142.644531 30.113281 Z M 144.738281 8.160156 C 144.738281 7.515625 144.925781 7.007812 145.304688 6.628906 C 145.679688 6.253906 146.179688 6.066406 146.800781 6.066406 C 147.445312 6.066406 147.953125 6.253906 148.332031 6.628906 C 148.707031 7.007812 148.894531 7.515625 148.894531 8.160156 C 148.894531 8.78125 148.707031 9.28125 148.332031 9.65625 C 147.953125 10.035156 147.445312 10.222656 146.800781 10.222656 C 146.15625 10.222656 145.65625 10.039062 145.289062 9.675781 C 144.921875 9.308594 144.738281 8.804688 144.738281 8.160156 Z M 159.9375 30.28125 C 161.175781 30.28125 162.191406 30.023438 162.980469 29.515625 C 163.765625 29.003906 164.160156 28.296875 164.160156 27.386719 C 164.160156 26.652344 163.914062 26.066406 163.425781 25.621094 C 162.941406 25.179688 162.335938 24.816406 161.617188 24.539062 C 160.894531 24.265625 160.167969 24.027344 159.4375 23.828125 C 158.527344 23.539062 157.652344 23.199219 156.808594 22.808594 C 155.96875 22.421875 155.28125 21.886719 154.75 21.199219 C 154.214844 20.511719 153.949219 19.601562 153.949219 18.472656 C 153.949219 16.875 154.53125 15.59375 155.699219 14.625 C 156.859375 13.664062 158.484375 13.183594 160.566406 13.183594 C 162.339844 13.183594 163.746094 13.554688 164.777344 14.292969 C 165.804688 15.039062 166.320312 16.054688 166.320312 17.339844 C 166.320312 18.027344 166.164062 18.574219 165.855469 18.984375 C 165.542969 19.394531 165.101562 19.601562 164.523438 19.601562 C 164.015625 19.601562 163.59375 19.449219 163.261719 19.136719 C 162.929688 18.828125 162.761719 18.425781 162.761719 17.9375 C 162.761719 17.519531 162.875 17.132812 163.09375 16.789062 C 163.316406 16.445312 163.605469 16.199219 163.960938 16.042969 C 163.625 15.578125 163.199219 15.238281 162.675781 15.027344 C 162.15625 14.816406 161.488281 14.714844 160.667969 14.714844 C 159.335938 14.714844 158.339844 14.949219 157.675781 15.425781 C 157.007812 15.902344 156.675781 16.609375 156.675781 17.539062 C 156.675781 18.207031 156.839844 18.734375 157.164062 19.125 C 157.480469 19.507812 157.953125 19.835938 158.574219 20.101562 C 159.191406 20.367188 159.957031 20.644531 160.867188 20.933594 C 161.621094 21.15625 162.363281 21.402344 163.09375 21.679688 C 163.828125 21.957031 164.492188 22.296875 165.089844 22.695312 C 165.6875 23.09375 166.164062 23.59375 166.519531 24.191406 C 166.875 24.792969 167.050781 25.535156 167.050781 26.421875 C 167.050781 27.550781 166.742188 28.519531 166.121094 29.328125 C 165.5 30.140625 164.648438 30.757812 163.558594 31.179688 C 162.472656 31.597656 161.222656 31.808594 159.804688 31.808594 C 157.851562 31.808594 156.277344 31.410156 155.082031 30.613281 C 153.882812 29.8125 153.285156 28.738281 153.285156 27.386719 C 153.285156 26.675781 153.445312 26.117188 153.769531 25.703125 C 154.089844 25.292969 154.546875 25.089844 155.148438 25.089844 C 155.679688 25.089844 156.128906 25.246094 156.496094 25.554688 C 156.859375 25.867188 157.042969 26.277344 157.042969 26.789062 C 157.042969 27.207031 156.925781 27.609375 156.691406 27.984375 C 156.460938 28.363281 156.179688 28.640625 155.84375 28.816406 C 156.132812 29.238281 156.648438 29.585938 157.394531 29.859375 C 158.136719 30.140625 158.984375 30.28125 159.9375 30.28125 Z M 186.371094 22.328125 C 186.371094 23.769531 186.15625 25.140625 185.71875 26.433594 C 185.289062 27.734375 184.6875 28.804688 183.910156 29.648438 C 183.246094 30.378906 182.425781 30.921875 181.449219 31.277344 C 180.476562 31.632812 179.367188 31.808594 178.125 31.808594 C 176.90625 31.808594 175.820312 31.636719 174.867188 31.289062 C 173.914062 30.949219 173.105469 30.425781 172.4375 29.714844 C 171.683594 28.894531 171.101562 27.878906 170.691406 26.667969 C 170.28125 25.460938 170.078125 24.148438 170.078125 22.730469 C 170.078125 21.289062 170.289062 19.90625 170.710938 18.585938 C 171.132812 17.265625 171.742188 16.1875 172.539062 15.34375 C 173.25 14.589844 174.074219 14.042969 175.011719 13.695312 C 175.957031 13.355469 177.039062 13.183594 178.257812 13.183594 C 179.476562 13.183594 180.574219 13.355469 181.550781 13.695312 C 182.527344 14.042969 183.347656 14.570312 184.011719 15.277344 C 184.789062 16.097656 185.375 17.125 185.773438 18.351562 C 186.171875 19.585938 186.371094 20.910156 186.371094 22.328125 Z M 173.636719 22.363281 C 173.636719 23.714844 173.742188 24.882812 173.949219 25.871094 C 174.160156 26.859375 174.457031 27.675781 174.832031 28.316406 C 175.210938 28.871094 175.65625 29.304688 176.175781 29.613281 C 176.699219 29.925781 177.382812 30.082031 178.226562 30.082031 C 179.753906 30.082031 180.894531 29.558594 181.648438 28.515625 C 182.050781 27.941406 182.34375 27.140625 182.527344 26.121094 C 182.71875 25.101562 182.8125 23.925781 182.8125 22.597656 C 182.8125 21.265625 182.707031 20.101562 182.496094 19.105469 C 182.285156 18.105469 181.992188 17.296875 181.617188 16.675781 C 181.261719 16.097656 180.8125 15.660156 180.265625 15.359375 C 179.726562 15.0625 179.035156 14.914062 178.191406 14.914062 C 176.640625 14.914062 175.519531 15.421875 174.832031 16.441406 C 174.035156 17.683594 173.636719 19.65625 173.636719 22.363281 Z M 189.097656 30.113281 L 191.660156 29.480469 L 191.660156 15.511719 L 189.097656 14.878906 L 189.097656 13.515625 L 193.886719 13.515625 L 194.617188 16.839844 L 194.753906 16.839844 C 195.417969 15.710938 196.316406 14.816406 197.445312 14.160156 C 198.578125 13.507812 199.785156 13.183594 201.070312 13.183594 C 202.910156 13.183594 204.273438 13.78125 205.160156 14.980469 C 205.605469 15.601562 205.917969 16.46875 206.105469 17.585938 C 206.296875 18.707031 206.390625 20.222656 206.390625 22.128906 L 206.390625 29.480469 L 208.953125 30.113281 L 208.953125 31.476562 L 200.9375 31.476562 L 200.9375 30.113281 L 203.164062 29.480469 L 203.164062 22.0625 C 203.164062 20.621094 203.125 19.546875 203.046875 18.835938 C 202.96875 18.128906 202.832031 17.574219 202.632812 17.175781 C 202.367188 16.640625 201.984375 16.238281 201.484375 15.957031 C 200.984375 15.683594 200.394531 15.542969 199.707031 15.542969 C 198.421875 15.542969 197.3125 15.953125 196.382812 16.773438 C 195.472656 17.597656 194.972656 18.871094 194.886719 20.601562 L 194.886719 29.480469 L 197.113281 30.113281 L 197.113281 31.476562 L 189.097656 31.476562 Z M 213.933594 15.34375 L 212.371094 15.34375 C 212.371094 14.347656 212.296875 13.371094 212.15625 12.417969 C 212.011719 11.464844 211.867188 10.605469 211.722656 9.84375 C 211.578125 9.074219 211.503906 8.480469 211.503906 8.0625 C 211.503906 7.507812 211.628906 7.054688 211.871094 6.710938 C 212.113281 6.367188 212.546875 6.199219 213.167969 6.199219 C 213.789062 6.199219 214.214844 6.363281 214.453125 6.695312 C 214.683594 7.03125 214.796875 7.484375 214.796875 8.0625 C 214.796875 8.480469 214.726562 9.074219 214.585938 9.84375 C 214.4375 10.605469 214.292969 11.464844 214.152344 12.417969 C 214.003906 13.371094 213.933594 14.347656 213.933594 15.34375 Z M 224.738281 30.28125 C 225.980469 30.28125 226.996094 30.023438 227.785156 29.515625 C 228.570312 29.003906 228.964844 28.296875 228.964844 27.386719 C 228.964844 26.652344 228.71875 26.066406 228.230469 25.621094 C 227.742188 25.179688 227.140625 24.816406 226.421875 24.539062 C 225.699219 24.265625 224.972656 24.027344 224.242188 23.828125 C 223.332031 23.539062 222.457031 23.199219 221.613281 22.808594 C 220.773438 22.421875 220.085938 21.886719 219.550781 21.199219 C 219.019531 20.511719 218.753906 19.601562 218.753906 18.472656 C 218.753906 16.875 219.335938 15.59375 220.496094 14.625 C 221.664062 13.664062 223.289062 13.183594 225.371094 13.183594 C 227.144531 13.183594 228.546875 13.554688 229.582031 14.292969 C 230.609375 15.039062 231.125 16.054688 231.125 17.339844 C 231.125 18.027344 230.96875 18.574219 230.660156 18.984375 C 230.347656 19.394531 229.90625 19.601562 229.328125 19.601562 C 228.820312 19.601562 228.398438 19.449219 228.066406 19.136719 C 227.734375 18.828125 227.566406 18.425781 227.566406 17.9375 C 227.566406 17.519531 227.675781 17.132812 227.898438 16.789062 C 228.121094 16.445312 228.410156 16.199219 228.761719 16.042969 C 228.429688 15.578125 228.003906 15.238281 227.480469 15.027344 C 226.960938 14.816406 226.292969 14.714844 225.472656 14.714844 C 224.140625 14.714844 223.144531 14.949219 222.480469 15.425781 C 221.8125 15.902344 221.480469 16.609375 221.480469 17.539062 C 221.480469 18.207031 221.644531 18.734375 221.964844 19.125 C 222.285156 19.507812 222.753906 19.835938 223.375 20.101562 C 223.996094 20.367188 224.761719 20.644531 225.671875 20.933594 C 226.425781 21.15625 227.167969 21.402344 227.898438 21.679688 C 228.628906 21.957031 229.296875 22.296875 229.894531 22.695312 C 230.492188 23.09375 230.96875 23.59375 231.324219 24.191406 C 231.679688 24.792969 231.855469 25.535156 231.855469 26.421875 C 231.855469 27.550781 231.546875 28.519531 230.925781 29.328125 C 230.304688 30.140625 229.449219 30.757812 228.363281 31.179688 C 227.277344 31.597656 226.027344 31.808594 224.605469 31.808594 C 222.65625 31.808594 221.082031 31.410156 219.886719 30.613281 C 218.6875 29.8125 218.089844 28.738281 218.089844 27.386719 C 218.089844 26.675781 218.25 26.117188 218.574219 25.703125 C 218.894531 25.292969 219.351562 25.089844 219.953125 25.089844 C 220.484375 25.089844 220.933594 25.246094 221.300781 25.554688 C 221.664062 25.867188 221.847656 26.277344 221.847656 26.789062 C 221.847656 27.207031 221.730469 27.609375 221.496094 27.984375 C 221.265625 28.363281 220.980469 28.640625 220.648438 28.816406 C 220.9375 29.238281 221.453125 29.585938 222.199219 29.859375 C 222.941406 30.140625 223.785156 30.28125 224.738281 30.28125 Z M 224.738281 30.28125 "/>
</g>
<g clip-path="url(#clip2)" clip-rule="nonzero">
<path style=" stroke:none;fill-rule:nonzero;fill:rgb(82.745098%,77.647059%,33.72549%);fill-opacity:1;" d="M 248.015625 9.457031 L 248.015625 20.132812 L 252.140625 20.132812 C 252.761719 20.132812 253.34375 20.039062 253.882812 19.847656 C 254.429688 19.664062 254.855469 19.414062 255.167969 19.105469 C 255.609375 18.636719 255.988281 18.027344 256.296875 17.273438 C 256.609375 16.519531 256.761719 15.710938 256.761719 14.847656 C 256.761719 14.003906 256.613281 13.230469 256.3125 12.53125 C 256.015625 11.835938 255.632812 11.210938 255.167969 10.65625 C 254.8125 10.277344 254.359375 9.984375 253.804688 9.769531 C 253.25 9.5625 252.652344 9.457031 252.007812 9.457031 Z M 252.871094 22.0625 L 248.015625 22.0625 L 248.015625 29.347656 L 251.175781 30.046875 L 251.175781 31.476562 L 241.898438 31.476562 L 241.898438 30.046875 L 244.691406 29.347656 L 244.691406 9.65625 L 241.898438 8.957031 L 241.898438 7.527344 L 252.90625 7.527344 C 253.949219 7.527344 254.902344 7.664062 255.765625 7.941406 C 256.628906 8.21875 257.339844 8.613281 257.894531 9.125 C 258.667969 9.8125 259.285156 10.636719 259.734375 11.601562 C 260.191406 12.566406 260.421875 13.582031 260.421875 14.644531 C 260.421875 15.734375 260.179688 16.796875 259.703125 17.839844 C 259.226562 18.882812 258.601562 19.746094 257.828125 20.433594 C 257.25 20.945312 256.53125 21.34375 255.664062 21.632812 C 254.800781 21.917969 253.871094 22.0625 252.871094 22.0625 Z M 265.042969 29.480469 L 265.042969 15.511719 L 262.484375 14.878906 L 262.484375 13.515625 L 268.269531 13.515625 L 268.269531 29.480469 L 270.828125 30.113281 L 270.828125 31.476562 L 262.484375 31.476562 L 262.484375 30.113281 Z M 264.578125 8.160156 C 264.578125 7.515625 264.765625 7.007812 265.144531 6.628906 C 265.519531 6.253906 266.019531 6.066406 266.640625 6.066406 C 267.28125 6.066406 267.792969 6.253906 268.167969 6.628906 C 268.546875 7.007812 268.734375 7.515625 268.734375 8.160156 C 268.734375 8.78125 268.546875 9.28125 268.167969 9.65625 C 267.792969 10.035156 267.28125 10.222656 266.640625 10.222656 C 265.996094 10.222656 265.492188 10.039062 265.121094 9.675781 C 264.757812 9.308594 264.578125 8.804688 264.578125 8.160156 Z M 276.808594 29.613281 L 285.289062 29.613281 L 285.953125 25.089844 L 287.847656 25.089844 L 287.847656 31.476562 L 273.117188 31.476562 L 273.117188 29.613281 L 284.023438 15.378906 L 276.242188 15.378906 L 275.445312 19.734375 L 273.550781 19.734375 L 273.550781 13.515625 L 287.714844 13.515625 L 287.714844 15.378906 Z M 294.699219 29.613281 L 303.179688 29.613281 L 303.84375 25.089844 L 305.738281 25.089844 L 305.738281 31.476562 L 291.007812 31.476562 L 291.007812 29.613281 L 301.914062 15.378906 L 294.132812 15.378906 L 293.335938 19.734375 L 291.441406 19.734375 L 291.441406 13.515625 L 305.605469 13.515625 L 305.605469 15.378906 Z M 308.699219 27.585938 C 308.699219 25.855469 309.507812 24.492188 311.125 23.496094 C 312.742188 22.496094 315.425781 21.71875 319.171875 21.164062 C 319.085938 19.859375 318.960938 18.835938 318.808594 18.105469 C 318.652344 17.375 318.453125 16.785156 318.207031 16.34375 C 317.898438 15.765625 317.464844 15.339844 316.910156 15.058594 C 316.359375 14.785156 315.757812 14.644531 315.117188 14.644531 C 314.496094 14.644531 313.933594 14.757812 313.433594 14.980469 C 312.9375 15.199219 312.601562 15.5 312.421875 15.878906 C 312.734375 16.097656 312.960938 16.386719 313.101562 16.742188 C 313.246094 17.097656 313.320312 17.429688 313.320312 17.738281 C 313.320312 18.292969 313.136719 18.730469 312.769531 19.050781 C 312.40625 19.375 311.957031 19.535156 311.425781 19.535156 C 310.894531 19.535156 310.453125 19.359375 310.109375 19.003906 C 309.765625 18.648438 309.597656 18.148438 309.597656 17.507812 C 309.597656 16.574219 309.917969 15.789062 310.558594 15.144531 C 311.203125 14.503906 312.015625 14.015625 313 13.683594 C 313.988281 13.347656 314.984375 13.183594 315.980469 13.183594 C 316.890625 13.183594 317.726562 13.320312 318.488281 13.59375 C 319.253906 13.875 319.90625 14.28125 320.4375 14.8125 C 321.8125 16.1875 322.5 18.625 322.5 22.128906 L 322.5 26.953125 C 322.5 28.039062 322.570312 28.792969 322.710938 29.214844 C 322.855469 29.636719 323.175781 29.847656 323.664062 29.847656 L 325.160156 29.847656 L 325.160156 30.84375 C 323.5625 31.488281 322.320312 31.808594 321.433594 31.808594 C 320.746094 31.808594 320.285156 31.558594 320.050781 31.058594 C 319.820312 30.5625 319.703125 29.601562 319.703125 28.183594 L 319.570312 28.183594 C 318.882812 29.316406 317.976562 30.203125 316.84375 30.84375 C 315.714844 31.488281 314.496094 31.808594 313.1875 31.808594 C 311.789062 31.808594 310.691406 31.433594 309.894531 30.679688 C 309.097656 29.925781 308.699219 28.894531 308.699219 27.585938 Z M 314.582031 29.878906 C 315.203125 29.878906 315.851562 29.71875 316.527344 29.394531 C 317.203125 29.074219 317.777344 28.628906 318.242188 28.050781 C 318.597656 27.609375 318.855469 27.078125 319.019531 26.46875 C 319.1875 25.859375 319.273438 25.144531 319.273438 24.324219 C 319.273438 23.949219 319.261719 23.578125 319.238281 23.207031 C 319.21875 22.84375 319.183594 22.496094 319.140625 22.164062 C 317.34375 22.519531 315.9375 22.898438 314.917969 23.308594 C 313.898438 23.71875 313.175781 24.207031 312.753906 24.773438 C 312.332031 25.339844 312.125 26.042969 312.125 26.886719 C 312.125 27.839844 312.339844 28.578125 312.769531 29.09375 C 313.203125 29.617188 313.808594 29.878906 314.582031 29.878906 Z M 314.582031 29.878906 "/>
</g>
<g clip-path="url(#clip3)" clip-rule="nonzero">
<path style=" stroke:none;fill-rule:nonzero;fill:rgb(14.509804%,14.117647%,13.333333%);fill-opacity:1;" d="M 76.527344 50.1875 C 75.800781 50.1875 75.132812 50.054688 74.523438 49.792969 C 73.917969 49.527344 73.425781 49.140625 73.054688 48.625 C 72.683594 48.109375 72.496094 47.472656 72.484375 46.714844 L 73.800781 46.714844 C 73.800781 47.222656 73.925781 47.640625 74.175781 47.96875 C 74.425781 48.296875 74.753906 48.539062 75.167969 48.699219 C 75.578125 48.859375 76.023438 48.9375 76.511719 48.9375 C 77.035156 48.9375 77.492188 48.851562 77.882812 48.683594 C 78.273438 48.515625 78.570312 48.296875 78.78125 48.019531 C 78.992188 47.746094 79.097656 47.441406 79.097656 47.113281 C 79.097656 46.652344 78.957031 46.277344 78.675781 45.988281 C 78.390625 45.703125 77.96875 45.46875 77.414062 45.289062 L 75.488281 44.613281 C 74.582031 44.289062 73.902344 43.917969 73.4375 43.5 C 72.976562 43.085938 72.742188 42.5 72.742188 41.746094 C 72.742188 40.902344 73.070312 40.214844 73.71875 39.679688 C 74.371094 39.148438 75.296875 38.882812 76.492188 38.882812 C 77.605469 38.882812 78.472656 39.136719 79.097656 39.648438 C 79.722656 40.160156 80.082031 40.847656 80.175781 41.710938 L 78.839844 41.710938 C 78.753906 41.207031 78.515625 40.816406 78.128906 40.535156 C 77.746094 40.253906 77.199219 40.113281 76.492188 40.113281 C 75.777344 40.113281 75.21875 40.273438 74.820312 40.589844 C 74.417969 40.910156 74.21875 41.3125 74.21875 41.800781 C 74.21875 42.199219 74.34375 42.515625 74.597656 42.75 C 74.851562 42.984375 75.246094 43.195312 75.78125 43.378906 L 78.039062 44.160156 C 78.820312 44.421875 79.441406 44.785156 79.894531 45.253906 C 80.347656 45.722656 80.574219 46.332031 80.574219 47.078125 C 80.574219 47.660156 80.417969 48.183594 80.109375 48.648438 C 79.800781 49.121094 79.347656 49.492188 78.746094 49.773438 C 78.140625 50.050781 77.402344 50.1875 76.527344 50.1875 Z M 89.175781 49.980469 L 89.175781 41.660156 L 90.53125 41.660156 L 90.53125 49.980469 Z M 83.289062 46.941406 L 83.289062 41.660156 L 84.644531 41.660156 L 84.644531 46.835938 C 84.644531 47.53125 84.816406 48.058594 85.15625 48.417969 C 85.492188 48.777344 85.976562 48.957031 86.605469 48.957031 C 87.128906 48.957031 87.578125 48.816406 87.964844 48.539062 C 88.351562 48.261719 88.648438 47.878906 88.859375 47.386719 C 89.070312 46.898438 89.175781 46.335938 89.175781 45.707031 L 89.679688 45.707031 C 89.679688 46.636719 89.546875 47.433594 89.277344 48.09375 C 89.007812 48.753906 88.628906 49.257812 88.136719 49.613281 C 87.648438 49.960938 87.074219 50.136719 86.414062 50.136719 C 85.789062 50.136719 85.242188 50.019531 84.777344 49.789062 C 84.304688 49.558594 83.941406 49.207031 83.683594 48.734375 C 83.421875 48.261719 83.289062 47.664062 83.289062 46.941406 Z M 97.851562 50.1875 C 97.292969 50.1875 96.789062 50.042969 96.34375 49.753906 C 95.894531 49.464844 95.539062 49.039062 95.273438 48.484375 C 95.011719 47.921875 94.882812 47.242188 94.882812 46.4375 L 95.402344 46.4375 C 95.402344 46.972656 95.515625 47.433594 95.734375 47.8125 C 95.957031 48.191406 96.246094 48.480469 96.601562 48.675781 C 96.953125 48.875 97.320312 48.972656 97.707031 48.972656 C 98.15625 48.972656 98.5625 48.84375 98.933594 48.589844 C 99.304688 48.335938 99.601562 47.972656 99.824219 47.496094 C 100.046875 47.023438 100.160156 46.453125 100.160156 45.792969 C 100.160156 45.144531 100.050781 44.589844 99.832031 44.125 C 99.609375 43.65625 99.3125 43.296875 98.9375 43.046875 C 98.566406 42.792969 98.152344 42.667969 97.695312 42.667969 C 97.300781 42.667969 96.925781 42.765625 96.578125 42.960938 C 96.226562 43.152344 95.945312 43.4375 95.726562 43.8125 C 95.511719 44.1875 95.402344 44.652344 95.402344 45.203125 L 94.882812 45.203125 C 94.882812 44.417969 95.011719 43.746094 95.265625 43.1875 C 95.523438 42.632812 95.882812 42.207031 96.339844 41.910156 C 96.796875 41.617188 97.328125 41.46875 97.9375 41.46875 C 98.589844 41.46875 99.191406 41.644531 99.738281 41.992188 C 100.285156 42.34375 100.722656 42.84375 101.054688 43.492188 C 101.382812 44.140625 101.550781 44.90625 101.550781 45.792969 C 101.550781 46.6875 101.382812 47.460938 101.046875 48.117188 C 100.710938 48.773438 100.261719 49.28125 99.699219 49.644531 C 99.136719 50.007812 98.523438 50.1875 97.851562 50.1875 Z M 95.003906 49.980469 L 94.046875 49.980469 L 94.046875 38.136719 L 95.402344 38.136719 L 95.402344 48.035156 Z M 107.320312 50.1875 C 106.515625 50.1875 105.84375 50.074219 105.308594 49.84375 C 104.769531 49.613281 104.359375 49.300781 104.082031 48.898438 C 103.804688 48.496094 103.65625 48.035156 103.640625 47.511719 L 104.941406 47.511719 C 104.96875 48.039062 105.183594 48.433594 105.582031 48.699219 C 105.976562 48.960938 106.515625 49.09375 107.199219 49.09375 C 107.558594 49.09375 107.886719 49.035156 108.191406 48.921875 C 108.492188 48.804688 108.730469 48.644531 108.910156 48.445312 C 109.089844 48.242188 109.179688 48.011719 109.179688 47.757812 C 109.179688 47.433594 109.058594 47.179688 108.820312 46.992188 C 108.585938 46.808594 108.207031 46.644531 107.6875 46.507812 L 106.070312 45.984375 C 105.371094 45.765625 104.832031 45.464844 104.460938 45.078125 C 104.085938 44.691406 103.902344 44.230469 103.902344 43.691406 C 103.902344 43.019531 104.195312 42.484375 104.785156 42.078125 C 105.375 41.671875 106.152344 41.46875 107.113281 41.46875 C 108.132812 41.46875 108.921875 41.679688 109.480469 42.09375 C 110.042969 42.511719 110.335938 43.03125 110.359375 43.65625 L 109.023438 43.65625 C 108.96875 43.292969 108.785156 43.015625 108.46875 42.828125 C 108.148438 42.640625 107.695312 42.546875 107.113281 42.546875 C 106.550781 42.546875 106.113281 42.671875 105.796875 42.925781 C 105.480469 43.175781 105.324219 43.453125 105.324219 43.761719 C 105.324219 44.335938 105.816406 44.757812 106.800781 45.03125 L 108.449219 45.585938 C 109.160156 45.796875 109.707031 46.078125 110.085938 46.425781 C 110.464844 46.777344 110.65625 47.21875 110.65625 47.757812 C 110.65625 48.171875 110.519531 48.566406 110.246094 48.9375 C 109.972656 49.308594 109.589844 49.609375 109.09375 49.839844 C 108.59375 50.074219 108.003906 50.1875 107.320312 50.1875 Z M 117.085938 45.515625 L 112.363281 45.515625 L 112.363281 44.335938 L 117.085938 44.335938 Z M 120.835938 49.980469 L 119.464844 49.980469 L 119.464844 39.074219 L 122.972656 39.074219 C 124.167969 39.074219 125.085938 39.375 125.71875 39.980469 C 126.355469 40.582031 126.671875 41.40625 126.671875 42.441406 C 126.671875 43.464844 126.355469 44.277344 125.71875 44.878906 C 125.085938 45.476562 124.167969 45.777344 122.972656 45.777344 L 120.835938 45.777344 Z M 120.835938 40.238281 L 120.835938 44.597656 L 122.972656 44.597656 C 123.730469 44.597656 124.304688 44.402344 124.695312 44.011719 C 125.085938 43.625 125.28125 43.101562 125.28125 42.441406 C 125.28125 41.769531 125.085938 41.234375 124.695312 40.832031 C 124.304688 40.433594 123.730469 40.238281 122.972656 40.238281 Z M 129.875 39.714844 C 129.59375 39.714844 129.375 39.636719 129.214844 39.476562 C 129.050781 39.316406 128.96875 39.105469 128.96875 38.847656 C 128.96875 38.59375 129.050781 38.390625 129.214844 38.238281 C 129.375 38.089844 129.59375 38.011719 129.875 38.011719 C 130.152344 38.011719 130.371094 38.089844 130.53125 38.238281 C 130.695312 38.390625 130.777344 38.59375 130.777344 38.847656 C 130.777344 39.105469 130.695312 39.316406 130.53125 39.476562 C 130.371094 39.636719 130.152344 39.714844 129.875 39.714844 Z M 130.550781 49.980469 L 129.195312 49.980469 L 129.195312 41.660156 L 130.550781 41.660156 Z M 139.875 49.980469 L 133.449219 49.980469 L 133.449219 48.886719 L 138.347656 42.773438 L 133.449219 42.773438 L 133.449219 41.679688 L 139.875 41.679688 L 139.875 42.773438 L 135.046875 48.886719 L 139.875 48.886719 Z M 148.113281 49.980469 L 141.6875 49.980469 L 141.6875 48.886719 L 146.582031 42.773438 L 141.6875 42.773438 L 141.6875 41.679688 L 148.113281 41.679688 L 148.113281 42.773438 L 143.285156 48.886719 L 148.113281 48.886719 Z M 157.078125 49.980469 L 155.898438 49.980469 L 155.722656 48.15625 L 155.722656 44.597656 C 155.722656 43.847656 155.566406 43.308594 155.25 42.984375 C 154.929688 42.65625 154.449219 42.496094 153.8125 42.496094 C 153.457031 42.496094 153.128906 42.546875 152.839844 42.652344 C 152.546875 42.753906 152.316406 42.914062 152.144531 43.132812 C 151.972656 43.347656 151.886719 43.628906 151.886719 43.96875 L 150.375 43.96875 C 150.375 43.367188 150.523438 42.882812 150.820312 42.515625 C 151.113281 42.148438 151.519531 41.878906 152.039062 41.714844 C 152.558594 41.550781 153.148438 41.46875 153.8125 41.46875 C 154.449219 41.46875 155.015625 41.574219 155.507812 41.789062 C 156 42.003906 156.382812 42.34375 156.660156 42.808594 C 156.941406 43.277344 157.078125 43.882812 157.078125 44.628906 Z M 153.066406 50.1875 C 152.382812 50.1875 151.820312 50.066406 151.375 49.824219 C 150.929688 49.582031 150.597656 49.265625 150.375 48.875 C 150.15625 48.488281 150.046875 48.082031 150.046875 47.652344 C 150.046875 47.089844 150.1875 46.632812 150.46875 46.28125 C 150.75 45.925781 151.132812 45.667969 151.621094 45.503906 C 152.105469 45.339844 152.652344 45.253906 153.257812 45.253906 C 153.695312 45.253906 154.128906 45.296875 154.566406 45.382812 C 155.003906 45.472656 155.429688 45.589844 155.84375 45.742188 L 155.84375 46.59375 C 155.5 46.453125 155.105469 46.34375 154.671875 46.261719 C 154.234375 46.183594 153.832031 46.140625 153.46875 46.140625 C 152.910156 46.140625 152.441406 46.257812 152.058594 46.484375 C 151.679688 46.710938 151.488281 47.101562 151.488281 47.652344 C 151.488281 48.058594 151.632812 48.40625 151.929688 48.695312 C 152.21875 48.984375 152.6875 49.128906 153.328125 49.128906 C 153.78125 49.128906 154.1875 49.023438 154.550781 48.8125 C 154.910156 48.601562 155.199219 48.335938 155.40625 48.015625 C 155.617188 47.699219 155.722656 47.378906 155.722656 47.0625 L 156.054688 47.0625 C 156.054688 47.617188 155.933594 48.132812 155.695312 48.609375 C 155.457031 49.082031 155.113281 49.464844 154.664062 49.753906 C 154.21875 50.042969 153.6875 50.1875 153.066406 50.1875 Z M 163.949219 45.515625 L 159.222656 45.515625 L 159.222656 44.335938 L 163.949219 44.335938 Z M 168.300781 49.980469 L 164.847656 39.074219 L 166.375 39.074219 L 169.207031 48.78125 L 168.804688 48.78125 L 171.707031 40.203125 L 172.625 40.203125 L 175.492188 48.710938 L 175.109375 48.710938 L 178.355469 39.074219 L 179.867188 39.074219 L 176.011719 49.980469 L 174.589844 49.980469 L 172.070312 42.582031 L 172.332031 42.582031 L 169.726562 49.980469 Z M 182.644531 39.714844 C 182.367188 39.714844 182.148438 39.636719 181.984375 39.476562 C 181.824219 39.316406 181.742188 39.105469 181.742188 38.847656 C 181.742188 38.59375 181.824219 38.390625 181.984375 38.238281 C 182.148438 38.089844 182.367188 38.011719 182.644531 38.011719 C 182.921875 38.011719 183.140625 38.089844 183.304688 38.238281 C 183.464844 38.390625 183.546875 38.59375 183.546875 38.847656 C 183.546875 39.105469 183.464844 39.316406 183.304688 39.476562 C 183.140625 39.636719 182.921875 39.714844 182.644531 39.714844 Z M 183.320312 49.980469 L 181.96875 49.980469 L 181.96875 41.660156 L 183.320312 41.660156 Z M 194.296875 49.980469 L 192.957031 49.980469 L 192.957031 45.097656 C 192.957031 44.304688 192.769531 43.703125 192.390625 43.289062 C 192.007812 42.875 191.492188 42.667969 190.839844 42.667969 C 190.34375 42.667969 189.910156 42.804688 189.542969 43.074219 C 189.179688 43.347656 188.902344 43.738281 188.703125 44.246094 C 188.507812 44.75 188.410156 45.351562 188.410156 46.054688 L 187.886719 46.054688 C 187.886719 45.085938 188.015625 44.261719 188.269531 43.578125 C 188.523438 42.894531 188.898438 42.371094 189.386719 42.011719 C 189.875 41.648438 190.46875 41.46875 191.171875 41.46875 C 191.824219 41.46875 192.382812 41.617188 192.851562 41.90625 C 193.316406 42.199219 193.671875 42.617188 193.921875 43.160156 C 194.171875 43.707031 194.296875 44.351562 194.296875 45.097656 Z M 188.410156 49.980469 L 187.054688 49.980469 L 187.054688 41.679688 L 188.21875 41.679688 L 188.410156 43.589844 Z M 200.464844 54.253906 C 199.613281 54.253906 198.878906 54.132812 198.253906 53.890625 C 197.628906 53.652344 197.144531 53.332031 196.800781 52.929688 C 196.453125 52.527344 196.28125 52.082031 196.28125 51.59375 C 196.28125 50.953125 196.519531 50.460938 196.992188 50.121094 C 197.460938 49.785156 198.070312 49.613281 198.816406 49.613281 L 199.5625 50.085938 C 198.9375 50.085938 198.457031 50.214844 198.117188 50.476562 C 197.773438 50.734375 197.601562 51.089844 197.601562 51.542969 C 197.601562 51.996094 197.84375 52.375 198.332031 52.6875 C 198.816406 53.003906 199.527344 53.160156 200.464844 53.160156 C 201.160156 53.160156 201.769531 53.058594 202.292969 52.859375 C 202.816406 52.660156 203.226562 52.398438 203.519531 52.078125 C 203.8125 51.757812 203.957031 51.410156 203.957031 51.039062 C 203.957031 50.78125 203.863281 50.554688 203.671875 50.367188 C 203.480469 50.179688 203.1875 50.085938 202.792969 50.085938 L 199.5625 50.085938 C 199.003906 50.085938 198.519531 50 198.109375 49.828125 C 197.703125 49.65625 197.386719 49.429688 197.167969 49.152344 C 196.949219 48.875 196.835938 48.570312 196.835938 48.242188 C 196.835938 47.894531 196.9375 47.601562 197.132812 47.355469 C 197.328125 47.113281 197.585938 46.929688 197.898438 46.800781 C 198.21875 46.675781 198.558594 46.609375 198.921875 46.609375 L 199.183594 47.113281 C 199.007812 47.113281 198.832031 47.152344 198.65625 47.230469 C 198.480469 47.308594 198.332031 47.425781 198.210938 47.578125 C 198.09375 47.734375 198.035156 47.925781 198.035156 48.15625 C 198.035156 48.421875 198.144531 48.644531 198.367188 48.824219 C 198.585938 49.003906 198.984375 49.09375 199.5625 49.09375 L 202.792969 49.09375 C 203.574219 49.09375 204.1875 49.257812 204.636719 49.585938 C 205.085938 49.917969 205.3125 50.378906 205.3125 50.96875 C 205.3125 51.515625 205.117188 52.035156 204.726562 52.535156 C 204.339844 53.039062 203.785156 53.449219 203.0625 53.769531 C 202.339844 54.089844 201.472656 54.253906 200.464844 54.253906 Z M 200.710938 47.546875 C 200.074219 47.546875 199.5 47.421875 198.988281 47.167969 C 198.472656 46.910156 198.066406 46.554688 197.773438 46.097656 C 197.472656 45.640625 197.324219 45.109375 197.324219 44.507812 C 197.324219 43.898438 197.472656 43.367188 197.773438 42.910156 C 198.066406 42.453125 198.472656 42.097656 198.988281 41.847656 C 199.5 41.597656 200.074219 41.46875 200.710938 41.46875 C 201.332031 41.46875 201.894531 41.597656 202.398438 41.847656 C 202.90625 42.097656 203.308594 42.453125 203.609375 42.910156 C 203.910156 43.367188 204.0625 43.898438 204.0625 44.507812 C 204.0625 45.109375 203.910156 45.640625 203.609375 46.097656 C 203.308594 46.554688 202.90625 46.910156 202.398438 47.167969 C 201.894531 47.421875 201.332031 47.546875 200.710938 47.546875 Z M 200.710938 46.574219 C 201.347656 46.574219 201.84375 46.378906 202.195312 45.984375 C 202.546875 45.589844 202.722656 45.097656 202.722656 44.507812 C 202.722656 43.898438 202.546875 43.40625 202.195312 43.027344 C 201.84375 42.648438 201.347656 42.460938 200.710938 42.460938 C 200.078125 42.460938 199.582031 42.648438 199.21875 43.027344 C 198.859375 43.40625 198.679688 43.898438 198.679688 44.507812 C 198.679688 45.097656 198.859375 45.589844 199.21875 45.984375 C 199.582031 46.378906 200.078125 46.574219 200.710938 46.574219 Z M 203.4375 42.789062 L 202.792969 42.527344 C 202.792969 42.042969 202.886719 41.617188 203.078125 41.246094 C 203.269531 40.878906 203.542969 40.59375 203.898438 40.390625 C 204.25 40.183594 204.667969 40.078125 205.15625 40.078125 L 205.050781 41.417969 C 204.53125 41.417969 204.128906 41.527344 203.851562 41.75 C 203.574219 41.972656 203.4375 42.320312 203.4375 42.789062 Z M 210.320312 50.1875 C 209.515625 50.1875 208.84375 50.074219 208.304688 49.84375 C 207.765625 49.613281 207.359375 49.300781 207.082031 48.898438 C 206.804688 48.496094 206.65625 48.035156 206.636719 47.511719 L 207.941406 47.511719 C 207.96875 48.039062 208.183594 48.433594 208.578125 48.699219 C 208.976562 48.960938 209.515625 49.09375 210.195312 49.09375 C 210.554688 49.09375 210.886719 49.035156 211.1875 48.921875 C 211.488281 48.804688 211.730469 48.644531 211.910156 48.445312 C 212.085938 48.242188 212.175781 48.011719 212.175781 47.757812 C 212.175781 47.433594 212.058594 47.179688 211.824219 46.992188 C 211.582031 46.808594 211.203125 46.644531 210.683594 46.507812 L 209.070312 45.984375 C 208.371094 45.765625 207.832031 45.464844 207.460938 45.078125 C 207.085938 44.691406 206.898438 44.230469 206.898438 43.691406 C 206.898438 43.019531 207.191406 42.484375 207.785156 42.078125 C 208.375 41.671875 209.148438 41.46875 210.109375 41.46875 C 211.128906 41.46875 211.917969 41.679688 212.480469 42.09375 C 213.042969 42.511719 213.335938 43.03125 213.355469 43.65625 L 212.019531 43.65625 C 211.96875 43.292969 211.785156 43.015625 211.464844 42.828125 C 211.148438 42.640625 210.695312 42.546875 210.109375 42.546875 C 209.550781 42.546875 209.113281 42.671875 208.796875 42.925781 C 208.480469 43.175781 208.320312 43.453125 208.320312 43.761719 C 208.320312 44.335938 208.8125 44.757812 209.796875 45.03125 L 211.449219 45.585938 C 212.160156 45.796875 212.707031 46.078125 213.085938 46.425781 C 213.464844 46.777344 213.652344 47.21875 213.652344 47.757812 C 213.652344 48.171875 213.515625 48.566406 213.246094 48.9375 C 212.972656 49.308594 212.585938 49.609375 212.089844 49.839844 C 211.59375 50.074219 211 50.1875 210.320312 50.1875 Z M 210.320312 50.1875 "/>
</g>
<g clip-path="url(#clip4)" clip-rule="nonzero">
<path style="fill-rule:nonzero;fill:rgb(82.745098%,77.647059%,33.72549%);fill-opacity:1;stroke-width:1;stroke-linecap:butt;stroke-linejoin:miter;stroke:rgb(100%,100%,100%);stroke-opacity:1;stroke-miterlimit:4;" d="M 0.00216568 46.748395 C 0.00216568 20.930476 20.932113 0.000000000000003169 46.750808 0.000000000000003169 C 72.569503 0.000000000000003169 93.49945 20.930476 93.505561 46.748395 C 93.505561 72.572423 72.569503 93.502899 46.750808 93.502899 C 20.932113 93.502899 0.00216568 72.572423 0.00216568 46.748395 Z M 46.750808 89.794551 C 70.52234 89.794551 89.796225 70.525806 89.796225 46.748395 C 89.796225 22.977093 70.52234 3.708348 46.750808 3.708348 C 22.979276 3.708348 3.705391 22.977093 3.705391 46.748395 C 3.705391 70.525806 22.979276 89.794551 46.750808 89.794551 Z M 46.750808 89.794551 " transform="matrix(0.639223,0,0,0.639394,0.303303,-0.000000000000002026)"/>
</g>
<path style=" stroke:none;fill-rule:nonzero;fill:rgb(82.745098%,77.647059%,33.72549%);fill-opacity:1;" d="M 17.351562 35.878906 C 18.828125 39.207031 21.484375 41.660156 24.621094 42.953125 L 29.527344 30.644531 Z M 19.476562 37.140625 C 19.183594 36.457031 19.5 35.660156 20.1875 35.367188 C 20.871094 35.070312 21.667969 35.386719 21.960938 36.074219 C 22.257812 36.761719 21.9375 37.554688 21.253906 37.851562 C 20.566406 38.144531 19.773438 37.828125 19.476562 37.140625 Z M 24.394531 40.648438 C 23.710938 40.945312 22.914062 40.628906 22.621094 39.941406 C 22.328125 39.253906 22.644531 38.460938 23.328125 38.164062 C 24.015625 37.871094 24.808594 38.1875 25.105469 38.875 C 25.398438 39.558594 25.082031 40.355469 24.394531 40.648438 Z M 25.515625 36.402344 C 24.828125 36.699219 24.035156 36.378906 23.738281 35.695312 C 23.445312 35.007812 23.761719 34.214844 24.445312 33.917969 C 25.132812 33.625 25.929688 33.941406 26.222656 34.628906 C 26.515625 35.3125 26.199219 36.109375 25.515625 36.402344 Z M 25.515625 36.402344 "/>
<g clip-path="url(#clip5)" clip-rule="nonzero">
<path style=" stroke:none;fill-rule:nonzero;fill:rgb(82.745098%,77.647059%,33.72549%);fill-opacity:1;" d="M 16.492188 25.195312 L 14.730469 24.492188 C 13.269531 28.261719 13.210938 32.570312 14.890625 36.585938 L 16.625 35.835938 C 15.15625 32.308594 15.210938 28.515625 16.492188 25.195312 Z M 16.492188 25.195312 "/>
</g>
<path style=" stroke:none;fill-rule:nonzero;fill:rgb(82.745098%,77.647059%,33.72549%);fill-opacity:1;" d="M 24.03125 17.269531 L 23.285156 15.53125 C 19.304688 17.289062 16.382812 20.457031 14.847656 24.191406 L 16.613281 24.894531 C 17.96875 21.605469 20.539062 18.816406 24.03125 17.269531 Z M 24.03125 17.269531 "/>
<path style=" stroke:none;fill-rule:nonzero;fill:rgb(82.745098%,77.647059%,33.72549%);fill-opacity:1;" d="M 34.964844 17.007812 L 35.667969 15.242188 C 31.902344 13.785156 27.59375 13.726562 23.582031 15.402344 L 24.328125 17.140625 C 27.855469 15.671875 31.648438 15.726562 34.964844 17.007812 Z M 34.964844 17.007812 "/>
<path style=" stroke:none;fill-rule:nonzero;fill:rgb(82.745098%,77.647059%,33.72549%);fill-opacity:1;" d="M 24.921875 43.074219 C 28.085938 44.292969 31.699219 44.34375 35.0625 42.945312 L 29.828125 30.765625 Z M 28.601562 42.324219 C 28.007812 42.777344 27.160156 42.664062 26.707031 42.070312 C 26.253906 41.476562 26.367188 40.628906 26.960938 40.175781 C 27.554688 39.722656 28.402344 39.835938 28.855469 40.429688 C 29.308594 41.023438 29.195312 41.871094 28.601562 42.324219 Z M 28.652344 38.335938 C 28.199219 37.746094 28.316406 36.898438 28.90625 36.441406 C 29.5 35.988281 30.347656 36.105469 30.800781 36.695312 C 31.253906 37.289062 31.140625 38.140625 30.546875 38.59375 C 29.953125 39.042969 29.105469 38.929688 28.652344 38.335938 Z M 32.992188 42.371094 C 32.398438 42.824219 31.550781 42.710938 31.097656 42.117188 C 30.644531 41.523438 30.757812 40.675781 31.351562 40.222656 C 31.945312 39.769531 32.792969 39.882812 33.242188 40.476562 C 33.699219 41.070312 33.582031 41.917969 32.992188 42.371094 Z M 32.992188 42.371094 "/>
<path style=" stroke:none;fill-rule:nonzero;fill:rgb(82.745098%,77.647059%,33.72549%);fill-opacity:1;" d="M 32.234375 27.921875 L 44.410156 22.6875 C 42.933594 19.359375 40.273438 16.910156 37.140625 15.613281 Z M 37.25 24.558594 C 36.550781 24.824219 35.773438 24.472656 35.507812 23.773438 C 35.246094 23.074219 35.597656 22.292969 36.292969 22.03125 C 36.992188 21.765625 37.773438 22.117188 38.035156 22.816406 C 38.300781 23.515625 37.949219 24.292969 37.25 24.558594 Z M 42.359375 21.558594 C 42.621094 22.257812 42.269531 23.039062 41.574219 23.300781 C 40.875 23.566406 40.09375 23.214844 39.828125 22.515625 C 39.566406 21.816406 39.917969 21.039062 40.617188 20.773438 C 41.3125 20.507812 42.09375 20.863281 42.359375 21.558594 Z M 38.554688 20.367188 C 37.855469 20.628906 37.078125 20.277344 36.8125 19.578125 C 36.550781 18.882812 36.902344 18.101562 37.601562 17.835938 C 38.296875 17.574219 39.078125 17.925781 39.34375 18.625 C 39.605469 19.324219 39.253906 20.101562 38.554688 20.367188 Z M 38.554688 20.367188 "/>
<g clip-path="url(#clip6)" clip-rule="nonzero">
<path style=" stroke:none;fill-rule:nonzero;fill:rgb(82.745098%,77.647059%,33.72549%);fill-opacity:1;" d="M 45.003906 22.433594 L 46.742188 21.6875 C 44.988281 17.707031 41.820312 14.78125 38.082031 13.25 L 37.378906 15.011719 C 40.667969 16.367188 43.457031 18.941406 45.003906 22.433594 Z M 45.003906 22.433594 "/>
</g>
<path style=" stroke:none;fill-rule:nonzero;fill:rgb(82.745098%,77.647059%,33.72549%);fill-opacity:1;" d="M 42.550781 35.246094 C 43.769531 32.082031 43.820312 28.464844 42.421875 25.101562 L 30.246094 30.335938 Z M 39.214844 27.5 C 39.542969 26.832031 40.355469 26.554688 41.023438 26.886719 C 41.695312 27.214844 41.96875 28.027344 41.640625 28.695312 C 41.308594 29.367188 40.5 29.640625 39.828125 29.3125 C 39.160156 28.980469 38.886719 28.171875 39.214844 27.5 Z M 40.941406 31.09375 C 41.609375 31.425781 41.882812 32.234375 41.554688 32.90625 C 41.222656 33.574219 40.414062 33.851562 39.746094 33.519531 C 39.074219 33.191406 38.800781 32.378906 39.128906 31.710938 C 39.460938 31.039062 40.269531 30.765625 40.941406 31.09375 Z M 37.070312 28.796875 C 37.742188 29.125 38.015625 29.933594 37.6875 30.605469 C 37.355469 31.273438 36.546875 31.550781 35.875 31.21875 C 35.207031 30.890625 34.929688 30.078125 35.261719 29.410156 C 35.589844 28.742188 36.402344 28.464844 37.070312 28.796875 Z M 37.070312 28.796875 "/>
<path style=" stroke:none;fill-rule:nonzero;fill:rgb(82.745098%,77.647059%,33.72549%);fill-opacity:1;" d="M 35.359375 42.816406 C 38.6875 41.339844 41.136719 38.679688 42.429688 35.546875 L 30.125 30.636719 Z M 38.542969 34.988281 C 39.238281 34.722656 40.019531 35.074219 40.289062 35.769531 C 40.554688 36.46875 40.203125 37.25 39.507812 37.515625 C 38.808594 37.78125 38.027344 37.429688 37.761719 36.734375 C 37.496094 36.035156 37.84375 35.253906 38.542969 34.988281 Z M 34.347656 33.695312 C 35.046875 33.429688 35.824219 33.78125 36.089844 34.476562 C 36.359375 35.175781 36.007812 35.957031 35.3125 36.222656 C 34.613281 36.488281 33.832031 36.136719 33.566406 35.441406 C 33.300781 34.742188 33.652344 33.960938 34.347656 33.695312 Z M 35.617188 38.015625 C 36.3125 37.75 37.09375 38.097656 37.363281 38.796875 C 37.628906 39.492188 37.277344 40.273438 36.582031 40.539062 C 35.882812 40.804688 35.101562 40.457031 34.835938 39.757812 C 34.570312 39.0625 34.921875 38.28125 35.617188 38.015625 Z M 35.617188 38.015625 "/>
<g clip-path="url(#clip7)" clip-rule="nonzero">
<path style=" stroke:none;fill-rule:nonzero;fill:rgb(82.745098%,77.647059%,33.72549%);fill-opacity:1;" d="M 24.679688 43.675781 L 23.976562 45.4375 C 27.742188 46.898438 32.054688 46.957031 36.066406 45.28125 L 35.316406 43.539062 C 31.792969 45.011719 28 44.957031 24.679688 43.675781 Z M 24.679688 43.675781 "/>
</g>
<path style=" stroke:none;fill-rule:nonzero;fill:rgb(82.745098%,77.647059%,33.72549%);fill-opacity:1;" d="M 24.285156 17.867188 C 20.957031 19.34375 18.507812 22 17.214844 25.136719 L 29.519531 30.046875 Z M 21.378906 25.625 C 20.683594 25.894531 19.898438 25.550781 19.628906 24.855469 C 19.355469 24.160156 19.699219 23.375 20.394531 23.105469 C 21.089844 22.835938 21.875 23.179688 22.144531 23.875 C 22.417969 24.570312 22.074219 25.351562 21.378906 25.625 Z M 25.582031 26.886719 C 24.886719 27.15625 24.105469 26.8125 23.832031 26.117188 C 23.5625 25.421875 23.90625 24.636719 24.601562 24.367188 C 25.296875 24.097656 26.078125 24.441406 26.351562 25.136719 C 26.621094 25.832031 26.277344 26.613281 25.582031 26.886719 Z M 24.28125 22.578125 C 23.585938 22.847656 22.804688 22.503906 22.53125 21.808594 C 22.261719 21.113281 22.605469 20.328125 23.300781 20.058594 C 23.996094 19.785156 24.777344 20.128906 25.050781 20.828125 C 25.320312 21.523438 24.976562 22.304688 24.28125 22.578125 Z M 24.28125 22.578125 "/>
<path style=" stroke:none;fill-rule:nonzero;fill:rgb(82.745098%,77.647059%,33.72549%);fill-opacity:1;" d="M 35.617188 43.414062 L 36.363281 45.152344 C 40.339844 43.394531 43.261719 40.226562 44.796875 36.488281 L 43.035156 35.785156 C 41.679688 39.074219 39.109375 41.867188 35.617188 43.414062 Z M 35.617188 43.414062 "/>
<g clip-path="url(#clip8)" clip-rule="nonzero">
<path style=" stroke:none;fill-rule:nonzero;fill:rgb(82.745098%,77.647059%,33.72549%);fill-opacity:1;" d="M 43.019531 24.84375 C 44.488281 28.371094 44.433594 32.164062 43.152344 35.484375 L 44.917969 36.1875 C 46.375 32.421875 46.433594 28.109375 44.757812 24.097656 Z M 43.019531 24.84375 "/>
</g>
<path style=" stroke:none;fill-rule:nonzero;fill:rgb(82.745098%,77.647059%,33.72549%);fill-opacity:1;" d="M 17.09375 25.4375 C 15.875 28.601562 15.824219 32.21875 17.222656 35.582031 L 29.398438 30.347656 Z M 20.128906 33.179688 C 19.78125 33.839844 18.964844 34.089844 18.304688 33.742188 C 17.644531 33.390625 17.394531 32.574219 17.742188 31.914062 C 18.089844 31.253906 18.910156 31.003906 19.570312 31.351562 C 20.226562 31.699219 20.480469 32.519531 20.128906 33.179688 Z M 20.339844 28.972656 C 19.988281 29.632812 19.171875 29.886719 18.511719 29.535156 C 17.851562 29.1875 17.601562 28.371094 17.949219 27.710938 C 18.296875 27.050781 19.117188 26.796875 19.777344 27.148438 C 20.433594 27.496094 20.6875 28.316406 20.339844 28.972656 Z M 24.136719 31.386719 C 23.789062 32.046875 22.972656 32.296875 22.3125 31.949219 C 21.652344 31.597656 21.398438 30.78125 21.75 30.121094 C 22.097656 29.460938 22.917969 29.210938 23.574219 29.558594 C 24.234375 29.910156 24.488281 30.726562 24.136719 31.386719 Z M 24.136719 31.386719 "/>
<path style=" stroke:none;fill-rule:nonzero;fill:rgb(82.745098%,77.647059%,33.72549%);fill-opacity:1;" d="M 34.726562 17.609375 C 31.5625 16.390625 27.945312 16.339844 24.585938 17.738281 L 29.816406 29.917969 Z M 30.59375 19.175781 C 30.910156 18.5 31.714844 18.210938 32.390625 18.527344 C 33.066406 18.84375 33.359375 19.648438 33.042969 20.324219 C 32.722656 21 31.917969 21.292969 31.242188 20.976562 C 30.566406 20.65625 30.277344 19.851562 30.59375 19.175781 Z M 30.816406 24.238281 C 30.5 24.914062 29.691406 25.203125 29.019531 24.886719 C 28.34375 24.570312 28.050781 23.765625 28.367188 23.089844 C 28.6875 22.414062 29.492188 22.121094 30.167969 22.441406 C 30.839844 22.757812 31.132812 23.5625 30.816406 24.238281 Z M 28.183594 18.523438 C 28.859375 18.839844 29.148438 19.644531 28.832031 20.320312 C 28.515625 20.996094 27.710938 21.285156 27.035156 20.96875 C 26.359375 20.652344 26.070312 19.847656 26.386719 19.171875 C 26.703125 18.496094 27.507812 18.207031 28.183594 18.523438 Z M 28.183594 18.523438 "/>
<path style=" stroke:none;fill-rule:nonzero;fill:rgb(82.745098%,77.647059%,33.72549%);fill-opacity:1;" d="M 16.753906 36.136719 L 15.015625 36.882812 C 16.773438 40.859375 19.941406 43.785156 23.675781 45.320312 L 24.378906 43.554688 C 21.089844 42.199219 18.300781 39.628906 16.753906 36.136719 Z M 16.753906 36.136719 "/>
</g>
</svg>
