<?xml version="1.0" encoding="UTF-8"?>
<svg xmlns="http://www.w3.org/2000/svg" xmlns:xlink="http://www.w3.org/1999/xlink" width="217px" height="40px" viewBox="0 0 217 40" version="1.1">
<defs>
<clipPath id="clip1">
  <path d="M 48.242188 3.6875 L 155 3.6875 L 155 21.207031 L 48.242188 21.207031 Z M 48.242188 3.6875 "/>
</clipPath>
<clipPath id="clip2">
  <path d="M 161 4 L 216.535156 4 L 216.535156 21.207031 L 161 21.207031 Z M 161 4 "/>
</clipPath>
<clipPath id="clip3">
  <path d="M 48.242188 25.34375 L 142.21875 25.34375 L 142.21875 36.167969 L 48.242188 36.167969 Z M 48.242188 25.34375 "/>
</clipPath>
<clipPath id="clip4">
  <path d="M 0.203125 0 L 39.988281 0 L 39.988281 39.855469 L 0.203125 39.855469 Z M 0.203125 0 "/>
</clipPath>
<clipPath id="clip5">
  <path d="M 9.074219 16 L 12 16 L 12 25 L 9.074219 25 Z M 9.074219 16 "/>
</clipPath>
<clipPath id="clip6">
  <path d="M 9.074219 10 L 16 10 L 16 17 L 9.074219 17 Z M 9.074219 10 "/>
</clipPath>
<clipPath id="clip7">
  <path d="M 24 8.832031 L 31.113281 8.832031 L 31.113281 15 L 24 15 Z M 24 8.832031 "/>
</clipPath>
<clipPath id="clip8">
  <path d="M 15 29 L 25 29 L 25 31.023438 L 15 31.023438 Z M 15 29 "/>
</clipPath>
<clipPath id="clip9">
  <path d="M 9.074219 24 L 17 24 L 17 31 L 9.074219 31 Z M 9.074219 24 "/>
</clipPath>
</defs>
<g id="surface1">
<g clip-path="url(#clip1)" clip-rule="nonzero">
<path style=" stroke:none;fill-rule:nonzero;fill:rgb(14.509804%,14.117647%,13.333333%);fill-opacity:1;" d="M 57.945312 18.96875 L 58.035156 18.96875 L 62.304688 5.019531 L 67.484375 5.019531 L 67.484375 5.972656 L 65.625 6.4375 L 65.625 19.566406 L 67.484375 20.03125 L 67.484375 20.984375 L 61.796875 20.984375 L 61.796875 20.03125 L 63.414062 19.566406 L 63.414062 6.460938 L 58.851562 20.984375 L 56.242188 20.984375 L 51.636719 6.460938 L 51.636719 19.566406 L 53.253906 20.03125 L 53.253906 20.984375 L 48.339844 20.984375 L 48.339844 20.03125 L 50.199219 19.566406 L 50.199219 6.4375 L 48.339844 5.972656 L 48.339844 5.019531 L 53.605469 5.019531 Z M 69.390625 18.390625 C 69.390625 17.238281 69.925781 16.328125 71.003906 15.664062 C 72.082031 14.996094 73.867188 14.480469 76.359375 14.109375 C 76.300781 13.238281 76.222656 12.558594 76.117188 12.070312 C 76.015625 11.582031 75.882812 11.191406 75.71875 10.894531 C 75.511719 10.511719 75.226562 10.226562 74.855469 10.039062 C 74.488281 9.855469 74.089844 9.765625 73.660156 9.765625 C 73.246094 9.765625 72.875 9.839844 72.539062 9.984375 C 72.210938 10.132812 71.984375 10.332031 71.867188 10.585938 C 72.074219 10.734375 72.226562 10.925781 72.320312 11.160156 C 72.417969 11.398438 72.464844 11.621094 72.464844 11.828125 C 72.464844 12.195312 72.34375 12.488281 72.097656 12.699219 C 71.855469 12.917969 71.558594 13.023438 71.203125 13.023438 C 70.851562 13.023438 70.558594 12.90625 70.328125 12.667969 C 70.101562 12.433594 69.988281 12.101562 69.988281 11.671875 C 69.988281 11.050781 70.199219 10.527344 70.628906 10.097656 C 71.054688 9.667969 71.597656 9.34375 72.253906 9.121094 C 72.910156 8.898438 73.570312 8.789062 74.234375 8.789062 C 74.839844 8.789062 75.398438 8.878906 75.90625 9.0625 C 76.414062 9.25 76.847656 9.519531 77.203125 9.875 C 78.117188 10.792969 78.574219 12.417969 78.574219 14.753906 L 78.574219 17.96875 C 78.574219 18.695312 78.621094 19.195312 78.714844 19.476562 C 78.8125 19.757812 79.023438 19.898438 79.347656 19.898438 L 80.34375 19.898438 L 80.34375 20.5625 C 79.28125 20.992188 78.457031 21.207031 77.867188 21.207031 C 77.410156 21.207031 77.101562 21.039062 76.945312 20.707031 C 76.792969 20.375 76.714844 19.734375 76.714844 18.789062 L 76.625 18.789062 C 76.167969 19.542969 75.5625 20.132812 74.8125 20.5625 C 74.058594 20.992188 73.246094 21.207031 72.375 21.207031 C 71.449219 21.207031 70.71875 20.957031 70.1875 20.453125 C 69.65625 19.949219 69.390625 19.261719 69.390625 18.390625 Z M 73.304688 19.921875 C 73.71875 19.921875 74.152344 19.8125 74.597656 19.597656 C 75.050781 19.382812 75.429688 19.085938 75.742188 18.699219 C 75.976562 18.40625 76.148438 18.054688 76.257812 17.644531 C 76.371094 17.238281 76.425781 16.765625 76.425781 16.21875 C 76.425781 15.964844 76.421875 15.71875 76.40625 15.472656 C 76.390625 15.230469 76.367188 14.996094 76.339844 14.777344 C 75.144531 15.011719 74.207031 15.265625 73.527344 15.539062 C 72.847656 15.8125 72.371094 16.140625 72.089844 16.515625 C 71.808594 16.894531 71.667969 17.363281 71.667969 17.925781 C 71.667969 18.558594 71.8125 19.050781 72.097656 19.398438 C 72.386719 19.746094 72.789062 19.921875 73.304688 19.921875 Z M 81.453125 15.109375 C 81.453125 14.148438 81.578125 13.230469 81.828125 12.359375 C 82.078125 11.488281 82.457031 10.777344 82.957031 10.230469 C 83.386719 9.757812 83.894531 9.398438 84.484375 9.152344 C 85.074219 8.910156 85.753906 8.789062 86.519531 8.789062 C 87.171875 8.789062 87.765625 8.914062 88.300781 9.164062 C 88.839844 9.417969 89.324219 9.867188 89.753906 10.519531 L 89.753906 5.019531 L 88.046875 4.597656 L 88.046875 3.6875 L 91.898438 3.6875 L 91.898438 19.65625 L 93.605469 20.074219 L 93.605469 20.984375 L 90.171875 21.207031 L 89.996094 19.386719 C 89.539062 20.066406 89.023438 20.542969 88.445312 20.808594 C 87.871094 21.074219 87.230469 21.207031 86.519531 21.207031 C 85.769531 21.207031 85.089844 21.09375 84.484375 20.875 C 83.878906 20.652344 83.378906 20.296875 82.980469 19.808594 C 82.507812 19.234375 82.132812 18.542969 81.859375 17.734375 C 81.589844 16.929688 81.453125 16.054688 81.453125 15.109375 Z M 89.753906 15.085938 C 89.753906 14.183594 89.6875 13.402344 89.554688 12.734375 C 89.421875 12.070312 89.230469 11.53125 88.976562 11.117188 C 88.742188 10.734375 88.453125 10.441406 88.113281 10.238281 C 87.777344 10.039062 87.324219 9.941406 86.765625 9.941406 C 86.261719 9.941406 85.824219 10.03125 85.445312 10.207031 C 85.070312 10.386719 84.765625 10.644531 84.527344 10.984375 C 84.261719 11.355469 84.070312 11.882812 83.953125 12.566406 C 83.835938 13.257812 83.777344 14.042969 83.777344 14.929688 C 83.777344 15.816406 83.84375 16.589844 83.976562 17.246094 C 84.109375 17.90625 84.300781 18.449219 84.550781 18.878906 C 84.800781 19.246094 85.101562 19.535156 85.445312 19.742188 C 85.792969 19.949219 86.242188 20.054688 86.785156 20.054688 C 87.304688 20.054688 87.75 19.96875 88.125 19.796875 C 88.5 19.628906 88.785156 19.375 88.976562 19.035156 C 89.230469 18.621094 89.421875 18.082031 89.554688 17.421875 C 89.6875 16.765625 89.753906 15.988281 89.753906 15.085938 Z M 96.65625 19.65625 L 96.65625 10.339844 L 94.949219 9.917969 L 94.949219 9.011719 L 98.800781 9.011719 L 98.800781 19.65625 L 100.507812 20.074219 L 100.507812 20.984375 L 94.949219 20.984375 L 94.949219 20.074219 Z M 96.34375 5.441406 C 96.34375 5.011719 96.46875 4.671875 96.722656 4.421875 C 96.972656 4.167969 97.304688 4.042969 97.71875 4.042969 C 98.144531 4.042969 98.484375 4.167969 98.734375 4.421875 C 98.984375 4.671875 99.113281 5.011719 99.113281 5.441406 C 99.113281 5.855469 98.984375 6.1875 98.734375 6.4375 C 98.484375 6.6875 98.144531 6.816406 97.71875 6.816406 C 97.289062 6.816406 96.953125 6.695312 96.710938 6.453125 C 96.46875 6.207031 96.34375 5.867188 96.34375 5.441406 Z M 106.460938 20.1875 C 107.285156 20.1875 107.960938 20.015625 108.488281 19.675781 C 109.011719 19.335938 109.269531 18.863281 109.269531 18.257812 C 109.269531 17.769531 109.109375 17.378906 108.785156 17.082031 C 108.460938 16.785156 108.058594 16.546875 107.582031 16.359375 C 107.097656 16.175781 106.617188 16.019531 106.128906 15.882812 C 105.523438 15.691406 104.941406 15.464844 104.378906 15.207031 C 103.820312 14.949219 103.363281 14.589844 103.007812 14.132812 C 102.652344 13.675781 102.476562 13.070312 102.476562 12.3125 C 102.476562 11.25 102.863281 10.394531 103.640625 9.75 C 104.414062 9.109375 105.492188 8.789062 106.882812 8.789062 C 108.0625 8.789062 108.996094 9.035156 109.683594 9.527344 C 110.367188 10.027344 110.710938 10.703125 110.710938 11.558594 C 110.710938 12.019531 110.605469 12.382812 110.398438 12.65625 C 110.195312 12.929688 109.898438 13.070312 109.515625 13.070312 C 109.175781 13.070312 108.894531 12.964844 108.671875 12.757812 C 108.453125 12.550781 108.339844 12.285156 108.339844 11.960938 C 108.339844 11.679688 108.414062 11.421875 108.5625 11.191406 C 108.710938 10.964844 108.902344 10.800781 109.136719 10.695312 C 108.917969 10.386719 108.632812 10.160156 108.285156 10.015625 C 107.9375 9.878906 107.492188 9.808594 106.949219 9.808594 C 106.0625 9.808594 105.398438 9.96875 104.957031 10.285156 C 104.511719 10.601562 104.292969 11.074219 104.292969 11.695312 C 104.292969 12.136719 104.398438 12.488281 104.613281 12.75 C 104.828125 13.007812 105.140625 13.222656 105.554688 13.402344 C 105.964844 13.578125 106.476562 13.761719 107.082031 13.957031 C 107.582031 14.101562 108.074219 14.269531 108.5625 14.453125 C 109.050781 14.636719 109.492188 14.863281 109.890625 15.128906 C 110.289062 15.398438 110.605469 15.730469 110.84375 16.128906 C 111.078125 16.527344 111.195312 17.023438 111.195312 17.613281 C 111.195312 18.367188 110.992188 19.015625 110.578125 19.550781 C 110.164062 20.09375 109.597656 20.503906 108.871094 20.785156 C 108.148438 21.066406 107.316406 21.207031 106.371094 21.207031 C 105.074219 21.207031 104.027344 20.941406 103.230469 20.410156 C 102.433594 19.875 102.035156 19.160156 102.035156 18.257812 C 102.035156 17.785156 102.140625 17.410156 102.355469 17.136719 C 102.570312 16.863281 102.875 16.726562 103.273438 16.726562 C 103.628906 16.726562 103.925781 16.832031 104.171875 17.039062 C 104.414062 17.246094 104.535156 17.519531 104.535156 17.859375 C 104.535156 18.140625 104.457031 18.40625 104.300781 18.65625 C 104.144531 18.90625 103.960938 19.09375 103.738281 19.210938 C 103.929688 19.492188 104.273438 19.722656 104.769531 19.90625 C 105.261719 20.09375 105.824219 20.1875 106.460938 20.1875 Z M 124.058594 14.886719 C 124.058594 15.847656 123.914062 16.757812 123.625 17.625 C 123.335938 18.488281 122.9375 19.203125 122.417969 19.765625 C 121.976562 20.253906 121.429688 20.613281 120.78125 20.851562 C 120.132812 21.089844 119.394531 21.207031 118.566406 21.207031 C 117.757812 21.207031 117.035156 21.089844 116.398438 20.859375 C 115.765625 20.632812 115.226562 20.28125 114.78125 19.808594 C 114.28125 19.261719 113.894531 18.585938 113.617188 17.777344 C 113.347656 16.972656 113.210938 16.097656 113.210938 15.152344 C 113.210938 14.191406 113.351562 13.269531 113.632812 12.390625 C 113.914062 11.511719 114.316406 10.792969 114.847656 10.230469 C 115.320312 9.726562 115.871094 9.359375 116.496094 9.128906 C 117.125 8.902344 117.84375 8.789062 118.65625 8.789062 C 119.46875 8.789062 120.199219 8.902344 120.847656 9.128906 C 121.496094 9.359375 122.042969 9.710938 122.484375 10.1875 C 123.003906 10.734375 123.394531 11.414062 123.660156 12.234375 C 123.925781 13.054688 124.058594 13.941406 124.058594 14.886719 Z M 115.578125 14.910156 C 115.578125 15.8125 115.648438 16.589844 115.789062 17.246094 C 115.929688 17.90625 116.125 18.449219 116.375 18.878906 C 116.628906 19.246094 116.925781 19.535156 117.269531 19.742188 C 117.621094 19.949219 118.074219 20.054688 118.632812 20.054688 C 119.652344 20.054688 120.414062 19.707031 120.914062 19.011719 C 121.179688 18.625 121.375 18.09375 121.5 17.414062 C 121.625 16.734375 121.6875 15.949219 121.6875 15.0625 C 121.6875 14.175781 121.617188 13.402344 121.476562 12.734375 C 121.339844 12.070312 121.144531 11.53125 120.890625 11.117188 C 120.65625 10.734375 120.355469 10.441406 119.992188 10.238281 C 119.632812 10.039062 119.171875 9.941406 118.613281 9.941406 C 117.578125 9.941406 116.835938 10.28125 116.375 10.960938 C 115.84375 11.789062 115.578125 13.105469 115.578125 14.910156 Z M 125.871094 20.074219 L 127.578125 19.65625 L 127.578125 10.339844 L 125.871094 9.917969 L 125.871094 9.011719 L 129.058594 9.011719 L 129.546875 11.226562 L 129.636719 11.226562 C 130.078125 10.472656 130.675781 9.878906 131.429688 9.441406 C 132.179688 9.007812 132.984375 8.789062 133.839844 8.789062 C 135.066406 8.789062 135.972656 9.1875 136.5625 9.984375 C 136.859375 10.398438 137.070312 10.980469 137.191406 11.722656 C 137.320312 12.472656 137.382812 13.480469 137.382812 14.753906 L 137.382812 19.65625 L 139.085938 20.074219 L 139.085938 20.984375 L 133.753906 20.984375 L 133.753906 20.074219 L 135.234375 19.65625 L 135.234375 14.710938 C 135.234375 13.75 135.210938 13.03125 135.15625 12.558594 C 135.105469 12.085938 135.015625 11.714844 134.882812 11.449219 C 134.703125 11.09375 134.449219 10.824219 134.117188 10.636719 C 133.785156 10.453125 133.390625 10.363281 132.933594 10.363281 C 132.078125 10.363281 131.339844 10.636719 130.71875 11.183594 C 130.113281 11.730469 129.78125 12.582031 129.722656 13.734375 L 129.722656 19.65625 L 131.207031 20.074219 L 131.207031 20.984375 L 125.871094 20.984375 Z M 142.402344 10.230469 L 141.363281 10.230469 C 141.363281 9.566406 141.316406 8.914062 141.222656 8.277344 C 141.125 7.644531 141.027344 7.070312 140.933594 6.5625 C 140.835938 6.050781 140.789062 5.65625 140.789062 5.375 C 140.789062 5.003906 140.867188 4.703125 141.03125 4.472656 C 141.191406 4.246094 141.480469 4.132812 141.894531 4.132812 C 142.308594 4.132812 142.59375 4.242188 142.75 4.464844 C 142.902344 4.6875 142.976562 4.988281 142.976562 5.375 C 142.976562 5.65625 142.929688 6.050781 142.835938 6.5625 C 142.738281 7.070312 142.644531 7.644531 142.550781 8.277344 C 142.453125 8.914062 142.402344 9.566406 142.402344 10.230469 Z M 149.597656 20.1875 C 150.421875 20.1875 151.097656 20.015625 151.625 19.675781 C 152.148438 19.335938 152.40625 18.863281 152.40625 18.257812 C 152.40625 17.769531 152.246094 17.378906 151.921875 17.082031 C 151.597656 16.785156 151.195312 16.546875 150.71875 16.359375 C 150.234375 16.175781 149.75 16.019531 149.265625 15.882812 C 148.660156 15.691406 148.078125 15.464844 147.515625 15.207031 C 146.957031 14.949219 146.496094 14.589844 146.144531 14.132812 C 145.789062 13.675781 145.613281 13.070312 145.613281 12.3125 C 145.613281 11.25 146 10.394531 146.773438 9.75 C 147.546875 9.109375 148.628906 8.789062 150.015625 8.789062 C 151.199219 8.789062 152.132812 9.035156 152.820312 9.527344 C 153.503906 10.027344 153.847656 10.703125 153.847656 11.558594 C 153.847656 12.019531 153.742188 12.382812 153.535156 12.65625 C 153.332031 12.929688 153.035156 13.070312 152.652344 13.070312 C 152.3125 13.070312 152.03125 12.964844 151.808594 12.757812 C 151.589844 12.550781 151.476562 12.285156 151.476562 11.960938 C 151.476562 11.679688 151.550781 11.421875 151.699219 11.191406 C 151.847656 10.964844 152.039062 10.800781 152.273438 10.695312 C 152.054688 10.386719 151.769531 10.160156 151.421875 10.015625 C 151.074219 9.878906 150.628906 9.808594 150.082031 9.808594 C 149.199219 9.808594 148.535156 9.96875 148.089844 10.285156 C 147.648438 10.601562 147.425781 11.074219 147.425781 11.695312 C 147.425781 12.136719 147.535156 12.488281 147.75 12.75 C 147.964844 13.007812 148.277344 13.222656 148.6875 13.402344 C 149.101562 13.578125 149.613281 13.761719 150.214844 13.957031 C 150.71875 14.101562 151.210938 14.269531 151.699219 14.453125 C 152.1875 14.636719 152.628906 14.863281 153.027344 15.128906 C 153.425781 15.398438 153.742188 15.730469 153.980469 16.128906 C 154.214844 16.527344 154.332031 17.023438 154.332031 17.613281 C 154.332031 18.367188 154.128906 19.015625 153.714844 19.550781 C 153.300781 20.09375 152.734375 20.503906 152.007812 20.785156 C 151.285156 21.066406 150.453125 21.207031 149.507812 21.207031 C 148.210938 21.207031 147.160156 20.941406 146.363281 20.410156 C 145.566406 19.875 145.167969 19.160156 145.167969 18.257812 C 145.167969 17.785156 145.277344 17.410156 145.492188 17.136719 C 145.707031 16.863281 146.011719 16.726562 146.410156 16.726562 C 146.761719 16.726562 147.0625 16.832031 147.308594 17.039062 C 147.550781 17.246094 147.671875 17.519531 147.671875 17.859375 C 147.671875 18.140625 147.59375 18.40625 147.4375 18.65625 C 147.28125 18.90625 147.09375 19.09375 146.875 19.210938 C 147.066406 19.492188 147.410156 19.722656 147.90625 19.90625 C 148.398438 20.09375 148.960938 20.1875 149.597656 20.1875 Z M 149.597656 20.1875 "/>
</g>
<g clip-path="url(#clip2)" clip-rule="nonzero">
<path style=" stroke:none;fill-rule:nonzero;fill:rgb(82.745098%,77.647059%,33.72549%);fill-opacity:1;" d="M 165.089844 6.304688 L 165.089844 13.421875 L 167.835938 13.421875 C 168.25 13.421875 168.636719 13.359375 168.996094 13.234375 C 169.359375 13.109375 169.644531 12.941406 169.851562 12.734375 C 170.144531 12.425781 170.394531 12.019531 170.601562 11.515625 C 170.808594 11.011719 170.914062 10.472656 170.914062 9.898438 C 170.914062 9.335938 170.8125 8.820312 170.613281 8.355469 C 170.414062 7.890625 170.160156 7.472656 169.851562 7.101562 C 169.613281 6.851562 169.3125 6.65625 168.941406 6.511719 C 168.574219 6.375 168.175781 6.304688 167.746094 6.304688 Z M 168.324219 14.710938 L 165.089844 14.710938 L 165.089844 19.566406 L 167.195312 20.03125 L 167.195312 20.984375 L 161.019531 20.984375 L 161.019531 20.03125 L 162.878906 19.566406 L 162.878906 6.4375 L 161.019531 5.972656 L 161.019531 5.019531 L 168.34375 5.019531 C 169.039062 5.019531 169.671875 5.109375 170.25 5.292969 C 170.824219 5.480469 171.296875 5.742188 171.664062 6.082031 C 172.183594 6.542969 172.589844 7.089844 172.890625 7.734375 C 173.195312 8.378906 173.347656 9.054688 173.347656 9.765625 C 173.347656 10.488281 173.1875 11.199219 172.871094 11.894531 C 172.554688 12.589844 172.136719 13.164062 171.621094 13.621094 C 171.238281 13.960938 170.757812 14.230469 170.183594 14.421875 C 169.605469 14.613281 168.988281 14.710938 168.324219 14.710938 Z M 176.425781 19.65625 L 176.425781 10.339844 L 174.71875 9.917969 L 174.71875 9.011719 L 178.570312 9.011719 L 178.570312 19.65625 L 180.277344 20.074219 L 180.277344 20.984375 L 174.71875 20.984375 L 174.71875 20.074219 Z M 176.113281 5.441406 C 176.113281 5.011719 176.238281 4.671875 176.492188 4.421875 C 176.742188 4.167969 177.074219 4.042969 177.488281 4.042969 C 177.914062 4.042969 178.253906 4.167969 178.503906 4.421875 C 178.757812 4.671875 178.882812 5.011719 178.882812 5.441406 C 178.882812 5.855469 178.757812 6.1875 178.503906 6.4375 C 178.253906 6.6875 177.914062 6.816406 177.488281 6.816406 C 177.058594 6.816406 176.722656 6.695312 176.476562 6.453125 C 176.234375 6.207031 176.113281 5.867188 176.113281 5.441406 Z M 184.253906 19.742188 L 189.898438 19.742188 L 190.34375 16.726562 L 191.605469 16.726562 L 191.605469 20.984375 L 181.796875 20.984375 L 181.796875 19.742188 L 189.058594 10.253906 L 183.878906 10.253906 L 183.347656 13.15625 L 182.085938 13.15625 L 182.085938 9.011719 L 191.515625 9.011719 L 191.515625 10.253906 Z M 196.164062 19.742188 L 201.808594 19.742188 L 202.25 16.726562 L 203.511719 16.726562 L 203.511719 20.984375 L 193.707031 20.984375 L 193.707031 19.742188 L 200.96875 10.253906 L 195.789062 10.253906 L 195.257812 13.15625 L 193.996094 13.15625 L 193.996094 9.011719 L 203.425781 9.011719 L 203.425781 10.253906 Z M 205.484375 18.390625 C 205.484375 17.238281 206.023438 16.328125 207.097656 15.664062 C 208.175781 14.996094 209.960938 14.480469 212.457031 14.109375 C 212.398438 13.238281 212.316406 12.558594 212.210938 12.070312 C 212.109375 11.582031 211.976562 11.191406 211.8125 10.894531 C 211.605469 10.511719 211.320312 10.226562 210.949219 10.039062 C 210.582031 9.855469 210.183594 9.765625 209.753906 9.765625 C 209.34375 9.765625 208.96875 9.839844 208.636719 9.984375 C 208.304688 10.132812 208.082031 10.332031 207.960938 10.585938 C 208.167969 10.734375 208.320312 10.925781 208.414062 11.160156 C 208.511719 11.398438 208.558594 11.621094 208.558594 11.828125 C 208.558594 12.195312 208.4375 12.488281 208.191406 12.699219 C 207.949219 12.917969 207.652344 13.023438 207.296875 13.023438 C 206.945312 13.023438 206.652344 12.90625 206.421875 12.667969 C 206.195312 12.433594 206.082031 12.101562 206.082031 11.671875 C 206.082031 11.050781 206.292969 10.527344 206.722656 10.097656 C 207.152344 9.667969 207.691406 9.34375 208.347656 9.121094 C 209.003906 8.898438 209.667969 8.789062 210.332031 8.789062 C 210.9375 8.789062 211.492188 8.878906 212 9.0625 C 212.511719 9.25 212.941406 9.519531 213.296875 9.875 C 214.210938 10.792969 214.667969 12.417969 214.667969 14.753906 L 214.667969 17.96875 C 214.667969 18.695312 214.714844 19.195312 214.8125 19.476562 C 214.90625 19.757812 215.121094 19.898438 215.445312 19.898438 L 216.441406 19.898438 L 216.441406 20.5625 C 215.378906 20.992188 214.550781 21.207031 213.960938 21.207031 C 213.503906 21.207031 213.195312 21.039062 213.039062 20.707031 C 212.886719 20.375 212.808594 19.734375 212.808594 18.789062 L 212.722656 18.789062 C 212.265625 19.542969 211.660156 20.132812 210.90625 20.5625 C 210.152344 20.992188 209.34375 21.207031 208.472656 21.207031 C 207.542969 21.207031 206.8125 20.957031 206.28125 20.453125 C 205.75 19.949219 205.484375 19.261719 205.484375 18.390625 Z M 209.402344 19.921875 C 209.8125 19.921875 210.246094 19.8125 210.695312 19.597656 C 211.144531 19.382812 211.527344 19.085938 211.835938 18.699219 C 212.070312 18.40625 212.246094 18.054688 212.355469 17.644531 C 212.464844 17.238281 212.523438 16.765625 212.523438 16.21875 C 212.523438 15.964844 212.515625 15.71875 212.5 15.472656 C 212.484375 15.230469 212.464844 14.996094 212.433594 14.777344 C 211.238281 15.011719 210.300781 15.265625 209.621094 15.539062 C 208.945312 15.8125 208.464844 16.140625 208.183594 16.515625 C 207.902344 16.894531 207.761719 17.363281 207.761719 17.925781 C 207.761719 18.558594 207.90625 19.050781 208.191406 19.398438 C 208.480469 19.746094 208.882812 19.921875 209.402344 19.921875 Z M 209.402344 19.921875 "/>
</g>
<g clip-path="url(#clip3)" clip-rule="nonzero">
<path style=" stroke:none;fill-rule:nonzero;fill:rgb(14.509804%,14.117647%,13.333333%);fill-opacity:1;" d="M 50.941406 33.457031 C 50.457031 33.457031 50.011719 33.371094 49.605469 33.195312 C 49.203125 33.019531 48.875 32.757812 48.628906 32.417969 C 48.382812 32.074219 48.253906 31.648438 48.246094 31.144531 L 49.125 31.144531 C 49.125 31.484375 49.210938 31.761719 49.375 31.980469 C 49.539062 32.195312 49.761719 32.359375 50.035156 32.464844 C 50.308594 32.570312 50.605469 32.625 50.929688 32.625 C 51.277344 32.625 51.582031 32.570312 51.84375 32.457031 C 52.101562 32.34375 52.300781 32.199219 52.441406 32.015625 C 52.582031 31.832031 52.652344 31.628906 52.652344 31.410156 C 52.652344 31.101562 52.558594 30.851562 52.371094 30.660156 C 52.179688 30.46875 51.898438 30.3125 51.53125 30.195312 L 50.246094 29.742188 C 49.644531 29.527344 49.191406 29.277344 48.882812 29 C 48.574219 28.722656 48.421875 28.332031 48.421875 27.832031 C 48.421875 27.269531 48.636719 26.808594 49.070312 26.453125 C 49.503906 26.097656 50.121094 25.921875 50.917969 25.921875 C 51.65625 25.921875 52.234375 26.089844 52.652344 26.433594 C 53.066406 26.773438 53.304688 27.234375 53.367188 27.808594 L 52.476562 27.808594 C 52.421875 27.472656 52.265625 27.210938 52.007812 27.023438 C 51.75 26.835938 51.386719 26.742188 50.917969 26.742188 C 50.441406 26.742188 50.070312 26.847656 49.804688 27.058594 C 49.535156 27.273438 49.402344 27.542969 49.402344 27.867188 C 49.402344 28.132812 49.488281 28.34375 49.65625 28.5 C 49.824219 28.65625 50.085938 28.796875 50.445312 28.921875 L 51.945312 29.441406 C 52.46875 29.613281 52.878906 29.855469 53.179688 30.171875 C 53.484375 30.480469 53.632812 30.886719 53.632812 31.386719 C 53.632812 31.773438 53.53125 32.121094 53.324219 32.433594 C 53.121094 32.746094 52.816406 32.996094 52.414062 33.179688 C 52.015625 33.367188 51.523438 33.457031 50.941406 33.457031 Z M 59.359375 33.320312 L 59.359375 27.773438 L 60.261719 27.773438 L 60.261719 33.320312 Z M 55.441406 31.292969 L 55.441406 27.773438 L 56.34375 27.773438 L 56.34375 31.222656 C 56.34375 31.6875 56.457031 32.039062 56.683594 32.277344 C 56.90625 32.515625 57.230469 32.636719 57.648438 32.636719 C 57.996094 32.636719 58.296875 32.542969 58.554688 32.359375 C 58.808594 32.171875 59.007812 31.917969 59.148438 31.59375 C 59.289062 31.265625 59.359375 30.890625 59.359375 30.472656 L 59.695312 30.472656 C 59.695312 31.09375 59.605469 31.621094 59.425781 32.0625 C 59.246094 32.503906 58.996094 32.839844 58.667969 33.074219 C 58.34375 33.308594 57.960938 33.425781 57.523438 33.425781 C 57.105469 33.425781 56.742188 33.347656 56.429688 33.191406 C 56.117188 33.039062 55.875 32.804688 55.703125 32.488281 C 55.527344 32.171875 55.441406 31.773438 55.441406 31.292969 Z M 65.132812 33.457031 C 64.761719 33.457031 64.429688 33.363281 64.128906 33.167969 C 63.832031 32.976562 63.59375 32.695312 63.417969 32.320312 C 63.246094 31.949219 63.15625 31.492188 63.15625 30.957031 L 63.503906 30.957031 C 63.503906 31.316406 63.578125 31.621094 63.726562 31.875 C 63.875 32.128906 64.066406 32.320312 64.300781 32.453125 C 64.535156 32.582031 64.78125 32.648438 65.039062 32.648438 C 65.335938 32.648438 65.609375 32.5625 65.855469 32.394531 C 66.101562 32.222656 66.300781 31.980469 66.445312 31.664062 C 66.597656 31.347656 66.671875 30.96875 66.671875 30.53125 C 66.671875 30.097656 66.597656 29.726562 66.453125 29.414062 C 66.304688 29.105469 66.105469 28.863281 65.859375 28.699219 C 65.609375 28.53125 65.332031 28.445312 65.03125 28.445312 C 64.765625 28.445312 64.519531 28.511719 64.285156 28.640625 C 64.054688 28.769531 63.863281 28.957031 63.71875 29.210938 C 63.574219 29.460938 63.503906 29.769531 63.503906 30.136719 L 63.15625 30.136719 C 63.15625 29.609375 63.242188 29.164062 63.414062 28.792969 C 63.585938 28.421875 63.824219 28.136719 64.128906 27.941406 C 64.433594 27.746094 64.785156 27.644531 65.191406 27.644531 C 65.625 27.644531 66.027344 27.761719 66.390625 27.996094 C 66.753906 28.230469 67.046875 28.5625 67.265625 28.992188 C 67.484375 29.425781 67.597656 29.9375 67.597656 30.53125 C 67.597656 31.125 67.484375 31.640625 67.261719 32.078125 C 67.039062 32.515625 66.738281 32.855469 66.363281 33.097656 C 65.992188 33.339844 65.582031 33.457031 65.132812 33.457031 Z M 63.238281 33.320312 L 62.601562 33.320312 L 62.601562 25.421875 L 63.503906 25.421875 L 63.503906 32.023438 Z M 71.4375 33.457031 C 70.902344 33.457031 70.453125 33.382812 70.097656 33.230469 C 69.738281 33.078125 69.464844 32.867188 69.28125 32.601562 C 69.097656 32.332031 69 32.023438 68.988281 31.675781 L 69.855469 31.675781 C 69.871094 32.027344 70.015625 32.289062 70.28125 32.464844 C 70.542969 32.640625 70.902344 32.730469 71.355469 32.730469 C 71.597656 32.730469 71.816406 32.691406 72.015625 32.613281 C 72.214844 32.535156 72.375 32.429688 72.496094 32.296875 C 72.613281 32.160156 72.675781 32.007812 72.675781 31.835938 C 72.675781 31.621094 72.59375 31.453125 72.4375 31.328125 C 72.277344 31.203125 72.027344 31.097656 71.679688 31.003906 L 70.605469 30.65625 C 70.140625 30.511719 69.78125 30.308594 69.53125 30.050781 C 69.285156 29.792969 69.160156 29.488281 69.160156 29.128906 C 69.160156 28.679688 69.355469 28.320312 69.75 28.050781 C 70.144531 27.78125 70.660156 27.644531 71.300781 27.644531 C 71.976562 27.644531 72.503906 27.785156 72.875 28.0625 C 73.25 28.339844 73.445312 28.6875 73.460938 29.105469 L 72.570312 29.105469 C 72.535156 28.863281 72.410156 28.675781 72.199219 28.550781 C 71.988281 28.425781 71.6875 28.363281 71.300781 28.363281 C 70.925781 28.363281 70.632812 28.449219 70.421875 28.617188 C 70.214844 28.785156 70.109375 28.96875 70.109375 29.175781 C 70.109375 29.554688 70.4375 29.835938 71.089844 30.019531 L 72.1875 30.390625 C 72.664062 30.53125 73.023438 30.71875 73.277344 30.949219 C 73.53125 31.183594 73.65625 31.480469 73.65625 31.835938 C 73.65625 32.117188 73.566406 32.378906 73.382812 32.625 C 73.203125 32.871094 72.949219 33.074219 72.617188 33.226562 C 72.285156 33.382812 71.890625 33.457031 71.4375 33.457031 Z M 77.9375 30.34375 L 74.792969 30.34375 L 74.792969 29.558594 L 77.9375 29.558594 Z M 80.433594 33.320312 L 79.519531 33.320312 L 79.519531 26.046875 L 81.855469 26.046875 C 82.652344 26.046875 83.261719 26.25 83.683594 26.652344 C 84.105469 27.054688 84.316406 27.601562 84.316406 28.292969 C 84.316406 28.976562 84.105469 29.519531 83.683594 29.917969 C 83.261719 30.316406 82.652344 30.519531 81.855469 30.519531 L 80.433594 30.519531 Z M 80.433594 26.824219 L 80.433594 29.730469 L 81.855469 29.730469 C 82.359375 29.730469 82.742188 29.601562 83.003906 29.339844 C 83.261719 29.082031 83.394531 28.734375 83.394531 28.292969 C 83.394531 27.847656 83.261719 27.488281 83.003906 27.222656 C 82.742188 26.957031 82.359375 26.824219 81.855469 26.824219 Z M 86.449219 26.476562 C 86.265625 26.476562 86.117188 26.421875 86.011719 26.316406 C 85.902344 26.210938 85.847656 26.070312 85.847656 25.898438 C 85.847656 25.726562 85.902344 25.59375 86.011719 25.492188 C 86.117188 25.390625 86.265625 25.34375 86.449219 25.34375 C 86.632812 25.34375 86.78125 25.390625 86.886719 25.492188 C 86.996094 25.59375 87.050781 25.726562 87.050781 25.898438 C 87.050781 26.070312 86.996094 26.210938 86.886719 26.316406 C 86.78125 26.421875 86.632812 26.476562 86.449219 26.476562 Z M 86.898438 33.320312 L 86 33.320312 L 86 27.773438 L 86.898438 27.773438 Z M 93.105469 33.320312 L 88.832031 33.320312 L 88.832031 32.589844 L 92.089844 28.515625 L 88.832031 28.515625 L 88.832031 27.785156 L 93.105469 27.785156 L 93.105469 28.515625 L 89.894531 32.589844 L 93.105469 32.589844 Z M 98.589844 33.320312 L 94.3125 33.320312 L 94.3125 32.589844 L 97.574219 28.515625 L 94.3125 28.515625 L 94.3125 27.785156 L 98.589844 27.785156 L 98.589844 28.515625 L 95.375 32.589844 L 98.589844 32.589844 Z M 104.558594 33.320312 L 103.773438 33.320312 L 103.65625 32.105469 L 103.65625 29.730469 C 103.65625 29.230469 103.550781 28.875 103.339844 28.65625 C 103.128906 28.4375 102.808594 28.328125 102.386719 28.328125 C 102.148438 28.328125 101.929688 28.363281 101.734375 28.433594 C 101.542969 28.503906 101.386719 28.609375 101.273438 28.753906 C 101.160156 28.898438 101.101562 29.085938 101.101562 29.3125 L 100.097656 29.3125 C 100.097656 28.914062 100.195312 28.589844 100.394531 28.34375 C 100.589844 28.097656 100.859375 27.921875 101.203125 27.8125 C 101.550781 27.699219 101.941406 27.644531 102.386719 27.644531 C 102.808594 27.644531 103.183594 27.71875 103.511719 27.859375 C 103.839844 28.003906 104.097656 28.230469 104.28125 28.539062 C 104.464844 28.851562 104.558594 29.253906 104.558594 29.753906 Z M 101.886719 33.457031 C 101.433594 33.457031 101.058594 33.378906 100.761719 33.214844 C 100.464844 33.054688 100.242188 32.84375 100.097656 32.582031 C 99.949219 32.324219 99.878906 32.054688 99.878906 31.769531 C 99.878906 31.394531 99.972656 31.089844 100.160156 30.855469 C 100.347656 30.617188 100.601562 30.445312 100.925781 30.335938 C 101.25 30.226562 101.613281 30.171875 102.015625 30.171875 C 102.304688 30.171875 102.597656 30.199219 102.886719 30.257812 C 103.175781 30.316406 103.460938 30.394531 103.738281 30.496094 L 103.738281 31.0625 C 103.507812 30.96875 103.246094 30.894531 102.957031 30.84375 C 102.664062 30.789062 102.398438 30.761719 102.152344 30.761719 C 101.785156 30.761719 101.472656 30.835938 101.21875 30.992188 C 100.964844 31.140625 100.835938 31.402344 100.835938 31.769531 C 100.835938 32.039062 100.933594 32.269531 101.128906 32.464844 C 101.324219 32.65625 101.636719 32.753906 102.0625 32.753906 C 102.363281 32.753906 102.632812 32.683594 102.875 32.542969 C 103.117188 32.398438 103.304688 32.222656 103.445312 32.011719 C 103.585938 31.796875 103.65625 31.585938 103.65625 31.375 L 103.875 31.375 C 103.875 31.746094 103.796875 32.089844 103.636719 32.40625 C 103.476562 32.722656 103.25 32.976562 102.953125 33.167969 C 102.65625 33.363281 102.300781 33.457031 101.886719 33.457031 Z M 109.128906 30.34375 L 105.988281 30.34375 L 105.988281 29.558594 L 109.128906 29.558594 Z M 112.03125 33.320312 L 109.730469 26.046875 L 110.746094 26.046875 L 112.628906 32.519531 L 112.363281 32.519531 L 114.292969 26.800781 L 114.90625 26.800781 L 116.8125 32.476562 L 116.558594 32.476562 L 118.722656 26.046875 L 119.726562 26.046875 L 117.160156 33.320312 L 116.214844 33.320312 L 114.539062 28.386719 L 114.710938 28.386719 L 112.976562 33.320312 Z M 121.578125 26.476562 C 121.390625 26.476562 121.246094 26.421875 121.136719 26.316406 C 121.027344 26.210938 120.976562 26.070312 120.976562 25.898438 C 120.976562 25.726562 121.027344 25.59375 121.136719 25.492188 C 121.246094 25.390625 121.390625 25.34375 121.578125 25.34375 C 121.761719 25.34375 121.90625 25.390625 122.015625 25.492188 C 122.125 25.59375 122.175781 25.726562 122.175781 25.898438 C 122.175781 26.070312 122.125 26.210938 122.015625 26.316406 C 121.90625 26.421875 121.761719 26.476562 121.578125 26.476562 Z M 122.027344 33.320312 L 121.125 33.320312 L 121.125 27.773438 L 122.027344 27.773438 Z M 129.332031 33.320312 L 128.441406 33.320312 L 128.441406 30.066406 C 128.441406 29.535156 128.316406 29.132812 128.0625 28.859375 C 127.808594 28.582031 127.464844 28.445312 127.03125 28.445312 C 126.699219 28.445312 126.414062 28.535156 126.167969 28.714844 C 125.925781 28.898438 125.742188 29.160156 125.609375 29.496094 C 125.480469 29.832031 125.414062 30.234375 125.414062 30.703125 L 125.066406 30.703125 C 125.066406 30.058594 125.152344 29.507812 125.320312 29.050781 C 125.492188 28.597656 125.738281 28.25 126.0625 28.007812 C 126.386719 27.765625 126.785156 27.644531 127.25 27.644531 C 127.6875 27.644531 128.058594 27.742188 128.371094 27.9375 C 128.679688 28.132812 128.917969 28.410156 129.082031 28.773438 C 129.25 29.136719 129.332031 29.566406 129.332031 30.066406 Z M 125.414062 33.320312 L 124.511719 33.320312 L 124.511719 27.785156 L 125.285156 27.785156 L 125.414062 29.058594 Z M 133.4375 36.167969 C 132.871094 36.167969 132.382812 36.089844 131.96875 35.925781 C 131.550781 35.769531 131.226562 35.554688 131 35.285156 C 130.769531 35.015625 130.652344 34.722656 130.652344 34.398438 C 130.652344 33.96875 130.8125 33.640625 131.125 33.414062 C 131.4375 33.191406 131.84375 33.078125 132.339844 33.078125 L 132.839844 33.390625 C 132.421875 33.390625 132.101562 33.476562 131.875 33.652344 C 131.644531 33.824219 131.53125 34.0625 131.53125 34.363281 C 131.53125 34.664062 131.695312 34.917969 132.019531 35.125 C 132.339844 35.335938 132.816406 35.4375 133.4375 35.4375 C 133.902344 35.4375 134.308594 35.371094 134.65625 35.238281 C 135.003906 35.105469 135.277344 34.933594 135.472656 34.71875 C 135.664062 34.503906 135.761719 34.273438 135.761719 34.027344 C 135.761719 33.851562 135.699219 33.703125 135.574219 33.578125 C 135.445312 33.453125 135.25 33.390625 134.988281 33.390625 L 132.839844 33.390625 C 132.464844 33.390625 132.144531 33.332031 131.871094 33.21875 C 131.597656 33.105469 131.390625 32.953125 131.242188 32.769531 C 131.097656 32.582031 131.023438 32.382812 131.023438 32.160156 C 131.023438 31.929688 131.089844 31.734375 131.21875 31.570312 C 131.351562 31.410156 131.523438 31.285156 131.730469 31.199219 C 131.941406 31.117188 132.167969 31.074219 132.410156 31.074219 L 132.585938 31.410156 C 132.46875 31.410156 132.351562 31.4375 132.234375 31.488281 C 132.117188 31.539062 132.019531 31.617188 131.9375 31.71875 C 131.859375 31.820312 131.820312 31.949219 131.820312 32.105469 C 131.820312 32.28125 131.894531 32.429688 132.039062 32.546875 C 132.1875 32.667969 132.453125 32.730469 132.839844 32.730469 L 134.988281 32.730469 C 135.507812 32.730469 135.917969 32.839844 136.214844 33.058594 C 136.515625 33.277344 136.664062 33.585938 136.664062 33.980469 C 136.664062 34.34375 136.535156 34.691406 136.277344 35.023438 C 136.019531 35.359375 135.648438 35.632812 135.167969 35.847656 C 134.6875 36.0625 134.109375 36.167969 133.4375 36.167969 Z M 133.601562 31.699219 C 133.175781 31.699219 132.796875 31.613281 132.453125 31.445312 C 132.113281 31.273438 131.84375 31.035156 131.644531 30.730469 C 131.445312 30.425781 131.347656 30.074219 131.347656 29.671875 C 131.347656 29.265625 131.445312 28.910156 131.644531 28.605469 C 131.84375 28.300781 132.113281 28.066406 132.453125 27.898438 C 132.796875 27.730469 133.175781 27.644531 133.601562 27.644531 C 134.015625 27.644531 134.390625 27.730469 134.726562 27.898438 C 135.0625 28.066406 135.332031 28.300781 135.53125 28.605469 C 135.730469 28.910156 135.832031 29.265625 135.832031 29.671875 C 135.832031 30.074219 135.730469 30.425781 135.53125 30.730469 C 135.332031 31.035156 135.0625 31.273438 134.726562 31.445312 C 134.390625 31.613281 134.015625 31.699219 133.601562 31.699219 Z M 133.601562 31.050781 C 134.023438 31.050781 134.355469 30.917969 134.589844 30.65625 C 134.824219 30.394531 134.941406 30.066406 134.941406 29.671875 C 134.941406 29.265625 134.824219 28.9375 134.589844 28.6875 C 134.355469 28.433594 134.023438 28.304688 133.601562 28.304688 C 133.183594 28.304688 132.851562 28.433594 132.609375 28.6875 C 132.371094 28.9375 132.25 29.265625 132.25 29.671875 C 132.25 30.066406 132.371094 30.394531 132.609375 30.65625 C 132.851562 30.917969 133.183594 31.050781 133.601562 31.050781 Z M 135.414062 28.527344 L 134.988281 28.351562 C 134.988281 28.027344 135.050781 27.742188 135.179688 27.5 C 135.304688 27.253906 135.488281 27.0625 135.722656 26.925781 C 135.957031 26.789062 136.238281 26.71875 136.558594 26.71875 L 136.492188 27.613281 C 136.144531 27.613281 135.878906 27.6875 135.691406 27.832031 C 135.507812 27.980469 135.414062 28.214844 135.414062 28.527344 Z M 139.996094 33.457031 C 139.460938 33.457031 139.015625 33.382812 138.65625 33.230469 C 138.300781 33.078125 138.027344 32.867188 137.84375 32.601562 C 137.65625 32.332031 137.558594 32.023438 137.546875 31.675781 L 138.414062 31.675781 C 138.433594 32.027344 138.574219 32.289062 138.839844 32.464844 C 139.101562 32.640625 139.460938 32.730469 139.917969 32.730469 C 140.15625 32.730469 140.375 32.691406 140.574219 32.613281 C 140.777344 32.535156 140.9375 32.429688 141.054688 32.296875 C 141.175781 32.160156 141.234375 32.007812 141.234375 31.835938 C 141.234375 31.621094 141.15625 31.453125 141 31.328125 C 140.839844 31.203125 140.585938 31.097656 140.238281 31.003906 L 139.164062 30.65625 C 138.699219 30.511719 138.34375 30.308594 138.09375 30.050781 C 137.84375 29.792969 137.71875 29.488281 137.71875 29.128906 C 137.71875 28.679688 137.917969 28.320312 138.308594 28.050781 C 138.703125 27.78125 139.21875 27.644531 139.859375 27.644531 C 140.535156 27.644531 141.0625 27.785156 141.4375 28.0625 C 141.808594 28.339844 142.003906 28.6875 142.019531 29.105469 L 141.128906 29.105469 C 141.097656 28.863281 140.972656 28.675781 140.761719 28.550781 C 140.550781 28.425781 140.25 28.363281 139.859375 28.363281 C 139.484375 28.363281 139.195312 28.449219 138.984375 28.617188 C 138.773438 28.785156 138.667969 28.96875 138.667969 29.175781 C 138.667969 29.554688 138.996094 29.835938 139.652344 30.019531 L 140.75 30.390625 C 141.222656 30.53125 141.585938 30.71875 141.839844 30.949219 C 142.089844 31.183594 142.214844 31.480469 142.214844 31.835938 C 142.214844 32.117188 142.125 32.378906 141.945312 32.625 C 141.765625 32.871094 141.507812 33.074219 141.175781 33.226562 C 140.84375 33.382812 140.453125 33.457031 139.996094 33.457031 Z M 139.996094 33.457031 "/>
</g>
<g clip-path="url(#clip4)" clip-rule="nonzero">
<path style="fill-rule:nonzero;fill:rgb(82.745098%,77.647059%,33.72549%);fill-opacity:1;stroke-width:1;stroke-linecap:butt;stroke-linejoin:miter;stroke:rgb(100%,100%,100%);stroke-opacity:1;stroke-miterlimit:4;" d="M 0.00289787 46.754504 C 0.00289787 20.930476 20.934394 0.000000000000003191 46.749907 0.000000000000003191 C 72.5746 0.000000000000003191 93.506096 20.930476 93.506096 46.754504 C 93.506096 72.569368 72.5746 93.499844 46.749907 93.499844 C 20.934394 93.499844 0.00289787 72.569368 0.00289787 46.754504 Z M 46.749907 89.797606 C 70.527353 89.797606 89.797182 70.525806 89.797182 46.754504 C 89.797182 22.974038 70.527353 3.702238 46.749907 3.702238 C 22.981642 3.702238 3.702632 22.974038 3.702632 46.754504 C 3.702632 70.525806 22.981642 89.797606 46.749907 89.797606 Z M 46.749907 89.797606 " transform="matrix(0.425495,0,0,0.426262,0.201892,-0.00000000000000136)"/>
</g>
<path style=" stroke:none;fill-rule:nonzero;fill:rgb(82.745098%,77.647059%,33.72549%);fill-opacity:1;" d="M 11.550781 23.917969 C 12.53125 26.136719 14.300781 27.773438 16.386719 28.636719 L 19.65625 20.429688 Z M 12.964844 24.761719 C 12.769531 24.304688 12.980469 23.773438 13.4375 23.578125 C 13.894531 23.382812 14.421875 23.59375 14.617188 24.050781 C 14.816406 24.507812 14.601562 25.035156 14.148438 25.234375 C 13.691406 25.429688 13.160156 25.21875 12.964844 24.761719 Z M 16.238281 27.097656 C 15.78125 27.296875 15.253906 27.085938 15.058594 26.628906 C 14.863281 26.167969 15.074219 25.640625 15.527344 25.445312 C 15.984375 25.246094 16.515625 25.457031 16.710938 25.914062 C 16.90625 26.371094 16.695312 26.902344 16.238281 27.097656 Z M 16.984375 24.269531 C 16.527344 24.464844 15.996094 24.253906 15.800781 23.796875 C 15.605469 23.339844 15.816406 22.808594 16.273438 22.613281 C 16.730469 22.414062 17.257812 22.628906 17.453125 23.085938 C 17.652344 23.542969 17.441406 24.070312 16.984375 24.269531 Z M 16.984375 24.269531 "/>
<g clip-path="url(#clip5)" clip-rule="nonzero">
<path style=" stroke:none;fill-rule:nonzero;fill:rgb(82.745098%,77.647059%,33.72549%);fill-opacity:1;" d="M 10.976562 16.796875 L 9.804688 16.328125 C 8.832031 18.839844 8.792969 21.714844 9.910156 24.390625 L 11.066406 23.890625 C 10.089844 21.539062 10.125 19.011719 10.976562 16.796875 Z M 10.976562 16.796875 "/>
</g>
<g clip-path="url(#clip6)" clip-rule="nonzero">
<path style=" stroke:none;fill-rule:nonzero;fill:rgb(82.745098%,77.647059%,33.72549%);fill-opacity:1;" d="M 15.996094 11.511719 L 15.5 10.355469 C 12.851562 11.523438 10.90625 13.636719 9.882812 16.128906 L 11.058594 16.597656 C 11.960938 14.402344 13.671875 12.542969 15.996094 11.511719 Z M 15.996094 11.511719 "/>
</g>
<path style=" stroke:none;fill-rule:nonzero;fill:rgb(82.745098%,77.647059%,33.72549%);fill-opacity:1;" d="M 23.273438 11.339844 L 23.742188 10.164062 C 21.234375 9.1875 18.367188 9.148438 15.695312 10.269531 L 16.195312 11.425781 C 18.542969 10.449219 21.066406 10.484375 23.273438 11.339844 Z M 23.273438 11.339844 "/>
<path style=" stroke:none;fill-rule:nonzero;fill:rgb(82.745098%,77.647059%,33.72549%);fill-opacity:1;" d="M 16.589844 28.714844 C 18.695312 29.527344 21.101562 29.5625 23.339844 28.628906 L 19.855469 20.511719 Z M 19.039062 28.214844 C 18.644531 28.519531 18.078125 28.441406 17.777344 28.046875 C 17.476562 27.652344 17.550781 27.085938 17.945312 26.785156 C 18.339844 26.480469 18.90625 26.558594 19.207031 26.953125 C 19.507812 27.347656 19.433594 27.914062 19.039062 28.214844 Z M 19.074219 25.558594 C 18.773438 25.164062 18.847656 24.597656 19.242188 24.296875 C 19.636719 23.992188 20.203125 24.070312 20.503906 24.464844 C 20.804688 24.859375 20.730469 25.425781 20.335938 25.726562 C 19.9375 26.03125 19.375 25.953125 19.074219 25.558594 Z M 21.960938 28.25 C 21.566406 28.550781 21 28.476562 20.699219 28.078125 C 20.398438 27.683594 20.472656 27.117188 20.867188 26.816406 C 21.261719 26.515625 21.828125 26.589844 22.128906 26.984375 C 22.429688 27.382812 22.355469 27.945312 21.960938 28.25 Z M 21.960938 28.25 "/>
<path style=" stroke:none;fill-rule:nonzero;fill:rgb(82.745098%,77.647059%,33.72549%);fill-opacity:1;" d="M 21.457031 18.617188 L 29.5625 15.125 C 28.578125 12.90625 26.808594 11.273438 24.722656 10.410156 Z M 24.796875 16.371094 C 24.332031 16.546875 23.8125 16.3125 23.636719 15.847656 C 23.460938 15.382812 23.695312 14.863281 24.160156 14.6875 C 24.625 14.511719 25.144531 14.746094 25.320312 15.210938 C 25.496094 15.675781 25.261719 16.195312 24.796875 16.371094 Z M 28.195312 14.375 C 28.371094 14.839844 28.136719 15.359375 27.671875 15.535156 C 27.207031 15.710938 26.6875 15.476562 26.511719 15.011719 C 26.335938 14.546875 26.570312 14.023438 27.035156 13.847656 C 27.5 13.671875 28.019531 13.90625 28.195312 14.375 Z M 25.664062 13.578125 C 25.199219 13.753906 24.679688 13.519531 24.503906 13.054688 C 24.328125 12.589844 24.5625 12.066406 25.027344 11.890625 C 25.492188 11.714844 26.011719 11.949219 26.1875 12.417969 C 26.363281 12.882812 26.128906 13.402344 25.664062 13.578125 Z M 25.664062 13.578125 "/>
<g clip-path="url(#clip7)" clip-rule="nonzero">
<path style=" stroke:none;fill-rule:nonzero;fill:rgb(82.745098%,77.647059%,33.72549%);fill-opacity:1;" d="M 29.957031 14.957031 L 31.113281 14.457031 C 29.945312 11.804688 27.835938 9.855469 25.351562 8.832031 L 24.882812 10.007812 C 27.070312 10.910156 28.925781 12.625 29.957031 14.957031 Z M 29.957031 14.957031 "/>
</g>
<path style=" stroke:none;fill-rule:nonzero;fill:rgb(82.745098%,77.647059%,33.72549%);fill-opacity:1;" d="M 28.324219 23.496094 C 29.136719 21.386719 29.167969 18.976562 28.238281 16.734375 L 20.132812 20.222656 Z M 26.101562 18.335938 C 26.324219 17.886719 26.863281 17.703125 27.308594 17.925781 C 27.753906 18.144531 27.9375 18.683594 27.71875 19.132812 C 27.496094 19.578125 26.957031 19.761719 26.511719 19.539062 C 26.066406 19.320312 25.882812 18.78125 26.101562 18.335938 Z M 27.25 20.730469 C 27.695312 20.949219 27.878906 21.488281 27.660156 21.9375 C 27.441406 22.382812 26.902344 22.566406 26.457031 22.347656 C 26.011719 22.125 25.828125 21.585938 26.046875 21.140625 C 26.265625 20.695312 26.804688 20.511719 27.25 20.730469 Z M 24.675781 19.195312 C 25.121094 19.417969 25.304688 19.957031 25.085938 20.402344 C 24.867188 20.851562 24.328125 21.035156 23.882812 20.8125 C 23.433594 20.59375 23.25 20.054688 23.472656 19.605469 C 23.691406 19.160156 24.230469 18.976562 24.675781 19.195312 Z M 24.675781 19.195312 "/>
<path style=" stroke:none;fill-rule:nonzero;fill:rgb(82.745098%,77.647059%,33.72549%);fill-opacity:1;" d="M 23.535156 28.542969 C 25.75 27.558594 27.382812 25.789062 28.242188 23.699219 L 20.054688 20.425781 Z M 25.65625 23.324219 C 26.121094 23.148438 26.640625 23.382812 26.816406 23.847656 C 26.996094 24.3125 26.761719 24.832031 26.296875 25.011719 C 25.832031 25.1875 25.3125 24.953125 25.136719 24.488281 C 24.960938 24.023438 25.191406 23.503906 25.65625 23.324219 Z M 22.863281 22.464844 C 23.328125 22.285156 23.847656 22.519531 24.023438 22.984375 C 24.203125 23.449219 23.96875 23.96875 23.503906 24.148438 C 23.039062 24.324219 22.519531 24.09375 22.34375 23.628906 C 22.167969 23.160156 22.398438 22.640625 22.863281 22.464844 Z M 23.707031 25.34375 C 24.171875 25.164062 24.691406 25.398438 24.871094 25.863281 C 25.046875 26.328125 24.8125 26.851562 24.351562 27.027344 C 23.886719 27.203125 23.367188 26.972656 23.1875 26.507812 C 23.011719 26.042969 23.246094 25.519531 23.707031 25.34375 Z M 23.707031 25.34375 "/>
<g clip-path="url(#clip8)" clip-rule="nonzero">
<path style=" stroke:none;fill-rule:nonzero;fill:rgb(82.745098%,77.647059%,33.72549%);fill-opacity:1;" d="M 16.429688 29.117188 L 15.960938 30.292969 C 18.46875 31.265625 21.335938 31.304688 24.007812 30.1875 L 23.507812 29.027344 C 21.160156 30.007812 18.636719 29.96875 16.429688 29.117188 Z M 16.429688 29.117188 "/>
</g>
<path style=" stroke:none;fill-rule:nonzero;fill:rgb(82.745098%,77.647059%,33.72549%);fill-opacity:1;" d="M 16.167969 11.910156 C 13.949219 12.894531 12.320312 14.667969 11.460938 16.757812 L 19.648438 20.03125 Z M 14.230469 17.082031 C 13.765625 17.265625 13.246094 17.035156 13.066406 16.570312 C 12.882812 16.105469 13.113281 15.585938 13.578125 15.402344 C 14.039062 15.222656 14.5625 15.453125 14.742188 15.914062 C 14.921875 16.378906 14.691406 16.902344 14.230469 17.082031 Z M 17.03125 17.925781 C 16.566406 18.105469 16.042969 17.875 15.863281 17.410156 C 15.683594 16.949219 15.914062 16.425781 16.375 16.246094 C 16.839844 16.0625 17.359375 16.292969 17.539062 16.757812 C 17.722656 17.222656 17.492188 17.742188 17.03125 17.925781 Z M 16.164062 15.050781 C 15.699219 15.230469 15.179688 15.003906 14.996094 14.539062 C 14.816406 14.074219 15.046875 13.554688 15.507812 13.371094 C 15.972656 13.191406 16.492188 13.421875 16.675781 13.882812 C 16.855469 14.347656 16.625 14.871094 16.164062 15.050781 Z M 16.164062 15.050781 "/>
<path style=" stroke:none;fill-rule:nonzero;fill:rgb(82.745098%,77.647059%,33.72549%);fill-opacity:1;" d="M 23.707031 28.941406 L 24.203125 30.101562 C 26.851562 28.929688 28.796875 26.816406 29.820312 24.328125 L 28.644531 23.859375 C 27.742188 26.050781 26.03125 27.910156 23.707031 28.941406 Z M 23.707031 28.941406 "/>
<path style=" stroke:none;fill-rule:nonzero;fill:rgb(82.745098%,77.647059%,33.72549%);fill-opacity:1;" d="M 28.636719 16.5625 C 29.613281 18.914062 29.578125 21.445312 28.726562 23.65625 L 29.898438 24.125 C 30.871094 21.613281 30.910156 18.742188 29.792969 16.066406 Z M 28.636719 16.5625 "/>
<path style=" stroke:none;fill-rule:nonzero;fill:rgb(82.745098%,77.647059%,33.72549%);fill-opacity:1;" d="M 11.378906 16.957031 C 10.566406 19.066406 10.535156 21.480469 11.464844 23.71875 L 19.570312 20.230469 Z M 13.398438 22.121094 C 13.167969 22.558594 12.625 22.726562 12.183594 22.496094 C 11.746094 22.261719 11.578125 21.714844 11.808594 21.277344 C 12.042969 20.835938 12.585938 20.667969 13.027344 20.902344 C 13.464844 21.132812 13.632812 21.679688 13.398438 22.121094 Z M 13.539062 19.316406 C 13.304688 19.757812 12.761719 19.925781 12.320312 19.691406 C 11.882812 19.457031 11.714844 18.914062 11.949219 18.472656 C 12.179688 18.03125 12.722656 17.867188 13.164062 18.097656 C 13.601562 18.332031 13.769531 18.875 13.539062 19.316406 Z M 16.066406 20.925781 C 15.835938 21.363281 15.289062 21.53125 14.851562 21.300781 C 14.414062 21.066406 14.246094 20.519531 14.476562 20.082031 C 14.710938 19.640625 15.253906 19.472656 15.691406 19.707031 C 16.132812 19.9375 16.300781 20.484375 16.066406 20.925781 Z M 16.066406 20.925781 "/>
<path style=" stroke:none;fill-rule:nonzero;fill:rgb(82.745098%,77.647059%,33.72549%);fill-opacity:1;" d="M 23.113281 11.738281 C 21.007812 10.925781 18.601562 10.894531 16.363281 11.824219 L 19.847656 19.945312 Z M 20.363281 12.785156 C 20.574219 12.335938 21.113281 12.140625 21.5625 12.351562 C 22.011719 12.5625 22.203125 13.101562 21.992188 13.550781 C 21.78125 14 21.246094 14.195312 20.796875 13.984375 C 20.347656 13.773438 20.152344 13.234375 20.363281 12.785156 Z M 20.511719 16.160156 C 20.300781 16.609375 19.765625 16.804688 19.316406 16.589844 C 18.867188 16.378906 18.671875 15.84375 18.882812 15.394531 C 19.09375 14.941406 19.628906 14.75 20.078125 14.960938 C 20.53125 15.171875 20.722656 15.707031 20.511719 16.160156 Z M 18.761719 12.347656 C 19.210938 12.558594 19.402344 13.097656 19.191406 13.546875 C 18.980469 13.996094 18.445312 14.191406 17.996094 13.980469 C 17.546875 13.769531 17.351562 13.230469 17.5625 12.78125 C 17.773438 12.332031 18.308594 12.136719 18.761719 12.347656 Z M 18.761719 12.347656 "/>
<g clip-path="url(#clip9)" clip-rule="nonzero">
<path style=" stroke:none;fill-rule:nonzero;fill:rgb(82.745098%,77.647059%,33.72549%);fill-opacity:1;" d="M 11.152344 24.089844 L 9.996094 24.589844 C 11.164062 27.242188 13.273438 29.191406 15.757812 30.210938 L 16.226562 29.035156 C 14.039062 28.132812 12.183594 26.417969 11.152344 24.089844 Z M 11.152344 24.089844 "/>
</g>
</g>
</svg>
